<svg xmlns="http://www.w3.org/2000/svg" id="Capa_1" data-name="Capa 1" viewBox="0 0 768 768"><defs fill="#000000"><style>.cls-1{fill:#0066db;}.cls-2{fill:#231f20;}.cls-3{fill:#f0f1f1;}</style></defs><circle class="cls-1" cx="384" cy="388.13" r="167.14" fill="#000000"/><path class="cls-2" d="M384,561.23c-95.44,0-173.09-77.65-173.09-173.09S288.56,215,384,215s173.09,77.65,173.09,173.11S479.44,561.23,384,561.23Zm0-334.29c-88.87,0-161.18,72.32-161.18,161.2S295.13,549.32,384,549.32,545.19,477,545.19,388.14,472.87,226.94,384,226.94Z" fill="#000000"/><path class="cls-3" d="M512.06,388.13A128.06,128.06,0,1,1,384,260.08,128.06,128.06,0,0,1,512.06,388.13Z" fill="#000000"/><path class="cls-2" d="M384,522.14a134.14,134.14,0,0,1-134-134c0-73.9,60.1-134,134-134s134,60.12,134,134S457.9,522.14,384,522.14ZM384,266A122.1,122.1,0,1,0,506.11,388.14,122.23,122.23,0,0,0,384,266Z" fill="#000000"/><polygon class="cls-3" points="470.98 427.36 384 388.13 384 325.03 470.98 427.36" fill="#000000"/><path class="cls-2" d="M471,433.32a5.88,5.88,0,0,1-2.45-.53l-87-39.22a6,6,0,0,1-3.51-5.43V325a6,6,0,1,1,11.9,0V384.3l83.48,37.64A6,6,0,0,1,471,433.32Z" fill="#000000"/></svg>