<svg xmlns="http://www.w3.org/2000/svg" id="Capa_1" data-name="Capa 1" viewBox="0 0 768 768"><defs fill="#000000"><style>.cls-1{fill:#f0f1f1;}.cls-2{fill:#231f20;}.cls-3{fill:#0066db;}</style></defs><path class="cls-1" d="M274.54,333a98.75,98.75,0,1,1,185.75,47l-25.38,40.76-8.38,56.86H320l-9.76-56.86L286.38,380A98.33,98.33,0,0,1,274.54,333Z" fill="#000000"/><path class="cls-2" d="M426.54,483.58H320a6,6,0,0,1-5.89-4.95l-9.55-55.79L281.25,383a104.63,104.63,0,1,1,184.29-.14l-24.92,40-8.18,55.65A6,6,0,0,1,426.54,483.58ZM325.06,471.67H421.4L429,419.88a6.14,6.14,0,0,1,.82-2.27l25.39-40.76a92.87,92.87,0,1,0-163.59.27l23.78,40.62a6,6,0,0,1,.74,2Z" fill="#000000"/><polygon class="cls-1" points="339.84 373.54 373.38 479.09 401.72 373.54 339.84 373.54" fill="#000000"/><path class="cls-2" d="M373.39,485a6,6,0,0,1-5.69-4.15L334.15,375.35a6,6,0,0,1,5.68-7.76h61.9a6,6,0,0,1,5.76,7.51L379.14,480.64a6,6,0,0,1-5.62,4.4ZM348,379.5l24.93,78.41L394,379.5Z" fill="#000000"/><rect class="cls-3" x="319.5" y="477.62" width="107.03" height="64.36" fill="#000000"/><path class="cls-2" d="M426.54,547.93h-107a6,6,0,0,1-6-5.95V477.62a6,6,0,0,1,6-5.95h107a6,6,0,0,1,6,5.95V542A6,6,0,0,1,426.54,547.93ZM325.46,536h95.13V483.58H325.46Z" fill="#000000"/></svg>