<svg id="Capa_1" data-name="Capa 1" xmlns="http://www.w3.org/2000/svg" viewBox="0 0 768 768"><defs><style>.cls-1{fill:#43525d;}</style></defs><path class="cls-1" d="M528.52,429.13l-9.69-3.57a46.4,46.4,0,0,0,5.33-10.51l.18-.49a31.54,31.54,0,0,0-18.72-40.47l-80.15-29.45a9.9,9.9,0,1,0-6.83,18.59l80.16,29.45a11.72,11.72,0,0,1,7,15l-.18.49c-3.23,8.78-6.54,9.69-8.69,9.36L428.5,392.33l-9.79-3.63-.17,0-35-12.89a9.9,9.9,0,0,0-6.84,18.59L421,410.65l67.63,25c.45.17.93.24,1.38.39l31.71,11.66a11.67,11.67,0,0,1,6.59,6.09,11.92,11.92,0,0,1,.22,9.38c-.76,2-3.57,4-7.36,5.06a22.63,22.63,0,0,1-13.12-.1L369.69,417.38A9.9,9.9,0,1,0,362.86,436L396,448.12l.13.06,87.62,32.2c1.73.64,2.75,1.57,3,2.79.33,1.46-.19,3.92-2.62,6.54-6.22,5.34-27.72,6.93-36.33,3.76L423,484.09a22.24,22.24,0,0,0-4.23-2.1L353.36,457.9a9.9,9.9,0,0,0-6.87,18.57l19.42,7.15.13.07,46.47,17.59a9,9,0,0,1-2.32,5.66,53.86,53.86,0,0,1-15.85,5.7c-2.35-7.23-7.71-12.38-13.49-17l-.88-.71a10.78,10.78,0,0,0-1-.73,29.84,29.84,0,0,0-15.7-4.68,27.67,27.67,0,0,0-11,2.31c-2.59-8.48-9-13.64-13.53-17.3l-.87-.71a10.78,10.78,0,0,0-1-.73c-8.25-5.05-16.88-6-25-3-2.5-6.71-7.66-11.58-13.17-16l-.89-.71a8.83,8.83,0,0,0-1-.74A29.86,29.86,0,0,0,281,447.94a27.54,27.54,0,0,0-7.14,1c-.62-10.8-7.3-17.54-14.66-23.42l-.89-.72a9.54,9.54,0,0,0-1-.73,29.84,29.84,0,0,0-15.7-4.68c-10.4,0-18.5,5.81-24.15,11.9A206.59,206.59,0,0,0,187,415.16c.29-.78.58-1.58.89-2.4l4.14-11.32c5.13-14,11.65-31.74,17.79-48.43L222,320c.21-.56.4-1.1.61-1.61a5.83,5.83,0,0,0,.23-.58c1.15-3.22,2.25-6.14,3.17-8.6l.42-1.11c.25-.65.48-1.28.68-1.87l0-.07c14.15.37,46.76.92,76.85-.63a9.9,9.9,0,0,0-.5-19.78h-.51c-25.46,1.31-52.74,1.08-68.64.76L237,279.2a26.26,26.26,0,0,0-15.51-33.7l-67.68-25A26.19,26.19,0,0,0,120.12,236L65.18,384.51a26.23,26.23,0,0,0,15.5,33.71l67.68,25a26.21,26.21,0,0,0,9.09,1.63h0a26.29,26.29,0,0,0,21.6-11.49,186.87,186.87,0,0,1,27.23,14.29A23.77,23.77,0,0,0,204,460.3c.79,7.92,5.36,15.11,13.62,21.38,8.3,7.21,16.49,10.87,24.34,10.87.73,0,1.39-.12,2.08-.18,1.63,6.55,6,12.56,13,17.9,8.3,7.22,16.49,10.88,24.35,10.88a23.75,23.75,0,0,0,6.05-.85,39.12,39.12,0,0,0,9.73,10.4c8.33,7.26,16.48,10.91,24.31,10.91a25.16,25.16,0,0,0,4.82-.47,24.85,24.85,0,0,0,2.61-.75,38.12,38.12,0,0,0,10.38,11.45c8.31,7.21,16.49,10.87,24.35,10.87h0c12,0,19.61-8.51,22.37-13.81a82.52,82.52,0,0,0,7.42-16,74.54,74.54,0,0,0,27.75-9.49,9,9,0,0,0,1.18-.84,28.41,28.41,0,0,0,9-14.19l9.55,3.61c5,1.86,12.2,2.9,19.9,2.9,13.51,0,28.7-3.2,37-10.82.15-.13.28-.27.42-.4a29.67,29.67,0,0,0,8.11-15.65,41.25,41.25,0,0,0,8.23.9,44,44,0,0,0,12.08-1.67c10-2.87,17.53-9.17,20.65-17.69a31.5,31.5,0,0,0-18.71-40.46Zm-371.06-4.05a6.56,6.56,0,0,1-2.23-.4l-67.68-25a6.43,6.43,0,0,1-3.8-8.26l54.94-148.53a6.47,6.47,0,0,1,6-4.22A6.66,6.66,0,0,1,147,239l67.68,25a6.45,6.45,0,0,1,3.8,8.27L163.49,420.88A6.46,6.46,0,0,1,157.46,425.08Zm73,41.47c-.19-.17-.4-.33-.6-.49-3.57-2.66-5.78-5.43-6.07-7.56a4.66,4.66,0,0,1,.64-2.83h0a9.64,9.64,0,0,0,1.54-2.3c.42-.85,1.05-1.93,1.77-3.07l0,0s0-.1.07-.14c3.09-4.78,8.53-11,13.78-11a9.8,9.8,0,0,1,4.88,1.49l.37.29c7.83,6.28,11.41,9.14.31,28.05,0,.08-.21.38-.25.46-.19.34-1.9,3.31-4.9,3.31C240.3,472.75,236.56,471.94,230.42,466.55Zm39.41,28.6a5.58,5.58,0,0,0-.6-.49c-3.56-2.67-5.78-5.43-6.07-7.57a4.64,4.64,0,0,1,.64-2.82,10.06,10.06,0,0,0,1.53-2.29c2.16-4.46,9.08-14.23,15.66-14.23a9.85,9.85,0,0,1,4.87,1.48l.37.3c5.92,4.74,9.4,7.54,6,16.78a10,10,0,0,0-1.1,2.65,90.68,90.68,0,0,1-4.54,8.61l-.26.46c-.18.34-1.9,3.32-4.89,3.32C279.71,501.35,276,500.54,269.83,495.15Zm52.63,26.56c-2.82.58-7.4-1.66-12.48-6.12a6.71,6.71,0,0,0-.58-.48c-3.49-2.62-5.51-5.17-5.94-7.25.09-.17.23-.36.31-.52a94.82,94.82,0,0,0,5.54-10.94c8.2-10.76,14-8.29,16.64-6.75l.38.31c7,5.59,9.32,7.48,5.63,17.38A67,67,0,0,1,326.72,518a5.84,5.84,0,0,0-.35.65S324.79,521.25,322.46,521.71Zm46.08,17.89c-.18.33-1.9,3.31-4.89,3.31-1.69,0-5.43-.81-11.57-6.21-.19-.17-.39-.32-.6-.48-3.57-2.67-5.77-5.43-6.07-7.57a4.71,4.71,0,0,1,.63-2.81h0a10.27,10.27,0,0,0,1.55-2.31c2.15-4.46,9.08-14.23,15.65-14.23a9.85,9.85,0,0,1,4.88,1.48l.37.3c4.37,3.49,7.4,5.93,7.32,10.66a10.72,10.72,0,0,0-.19,2c-.61,3.59-2.69,8.39-6.81,15.4C368.75,539.21,368.59,539.51,368.54,539.6Z"/><path class="cls-1" d="M702.84,371l-55-148.53a26.34,26.34,0,0,0-24.61-17.15,26,26,0,0,0-9.09,1.64l-67.68,25a26.26,26.26,0,0,0-15.5,33.7l3,8c-21.29,1.4-64.5,3.1-94.3-3.35-1.83-1-6.57-4-10.8-6.64-27.25-17.19-41.84-25.19-51.18-25a20.45,20.45,0,0,1-3.49-.27c-17-2.14-29,4.14-55.33,46.77a10,10,0,0,0-1.24,3.06c-4.43,19.9.92,34,6.1,47.65,2.83,7.47,5.76,15.2,7.48,24.55a9.9,9.9,0,0,0,6,7.37c9.1,3.73,25.48,3,37.14-4.63,9.44-6.19,14.78-16.16,15-28.07,0-.83,0-1.63,0-2.42l13.78,9.4a9.9,9.9,0,0,0,11.16-16.36l-31.27-21.32,0,0a9.91,9.91,0,0,0-14.23,13c.29,1.32,1,5.81.74,17.28-.11,5.5-2.06,9.29-6.1,11.95-4.38,2.86-10.21,3.62-14.24,3.55a179,179,0,0,0-7-21.31c-4.7-12.41-8.15-21.51-5.61-34.75,23.38-37.54,30.18-36.68,35.13-36.06a39.12,39.12,0,0,0,6.4.41c6.34.59,30.9,16.08,40.14,21.91,10.74,6.78,13.38,8.4,16.18,9,35.62,8,87.18,5.09,106.59,3.59l4.57,12.33c.26.72.54,1.48.78,2.08,4.52,12.37,10.56,28.79,16.52,45l18.12,49.27c-7.77,3.53-16.17,8.41-29.46,17.63a9.9,9.9,0,1,0,11.29,16.27c12.58-8.73,20-12.94,26.09-15.75a26.09,26.09,0,0,0,30.68,9.83l67.68-25A26.28,26.28,0,0,0,702.84,371ZM680.46,386.1l-67.68,25a6.52,6.52,0,0,1-8.26-3.8L549.58,258.79a6.44,6.44,0,0,1,3.8-8.26l67.67-25a6.4,6.4,0,0,1,8.27,3.8l54.94,148.54A6.43,6.43,0,0,1,680.46,386.1Z"/></svg>