<svg xmlns="http://www.w3.org/2000/svg" id="Capa_1" data-name="Capa 1" viewBox="0 0 768 768"><defs fill="#000000"><style>.cls-1{fill:#0066db;}.cls-2{fill:#231f20;}.cls-3{fill:#f0f1f1;}</style></defs><polygon class="cls-1" points="452.72 343.35 562.65 343.35 562.65 481.78 516.9 481.78 516.97 496.01 517.01 503.63 517.12 522.12 505.61 515.02 500.87 512.1 490.29 505.56 488.04 504.18 475.55 496.44 474.56 495.83 462.72 488.52 458.83 486.12 451.82 481.78 315.29 481.78 315.29 393.15 452.72 343.35" fill="#000000"/><path class="cls-2" d="M517.12,528.08a5.85,5.85,0,0,1-3.14-.89l-63.85-39.45H315.29a6,6,0,0,1-6-5.95V393.16a6,6,0,1,1,11.91,0v82.67H451.82a5.87,5.87,0,0,1,3.11.88l56.18,34.7L511,481.82a5.94,5.94,0,0,1,5.95-6h39.78V349.31h-104a6,6,0,0,1,0-11.91H562.65a6,6,0,0,1,6,6V481.79a6,6,0,0,1-6,5.95H522.89l.19,34.36a6,6,0,0,1-3,5.23A6.07,6.07,0,0,1,517.12,528.08Z" fill="#000000"/><polygon class="cls-3" points="205.35 254.14 205.35 392.59 251.1 392.59 250.9 432.94 316.19 392.59 452.71 392.59 452.71 254.14 205.35 254.14" fill="#000000"/><path class="cls-2" d="M250.89,438.9a6,6,0,0,1-2.91-.76,5.92,5.92,0,0,1-3-5.23l.18-34.37H205.35a6,6,0,0,1-5.95-6V254.14a6,6,0,0,1,5.95-6H452.72a6,6,0,0,1,5.95,6V392.59a6,6,0,0,1-5.95,6H317.87L254,438A5.93,5.93,0,0,1,250.89,438.9ZM211.3,386.63h39.8a6,6,0,0,1,6,6l-.15,29.6,56.14-34.7a5.91,5.91,0,0,1,3.13-.89H446.77V260.09H211.3Z" fill="#000000"/></svg>