<svg xmlns="http://www.w3.org/2000/svg" id="Capa_1" data-name="Capa 1" viewBox="0 0 768 768"><defs fill="#000000"><style>.cls-1{fill:#0066db;}.cls-2{fill:#231f20;}.cls-3{fill:#f0f1f1;}</style></defs><path class="cls-1" d="M206.12,333.62H331.67a0,0,0,0,1,0,0V524.37a0,0,0,0,1,0,0H206.12a.36.36,0,0,1-.36-.36V334A.36.36,0,0,1,206.12,333.62Z" fill="#000000"/><path class="cls-2" d="M331.67,530.33H217a17.19,17.19,0,0,1-17.17-17.17V344.83A17.18,17.18,0,0,1,217,327.67h114.7a6,6,0,0,1,6,6V524.37A6,6,0,0,1,331.67,530.33ZM217,339.58a5.26,5.26,0,0,0-5.26,5.25V513.16a5.27,5.27,0,0,0,5.26,5.26H325.72V339.58Z" fill="#000000"/><path class="cls-3" d="M278,314.44h29.57a24.13,24.13,0,0,1,24.13,24.13V518.7a24.13,24.13,0,0,1-24.13,24.13H278a24.13,24.13,0,0,1-24.13-24.13V338.57A24.14,24.14,0,0,1,278,314.44Z" fill="#000000"/><path class="cls-2" d="M307.54,548.78H278a30.11,30.11,0,0,1-30.09-30.09V338.57A30.11,30.11,0,0,1,278,308.48h29.58a30.11,30.11,0,0,1,30.09,30.09V518.69A30.11,30.11,0,0,1,307.54,548.78ZM278,320.39a18.21,18.21,0,0,0-18.18,18.18V518.69A18.21,18.21,0,0,0,278,536.87h29.58a18.21,18.21,0,0,0,18.18-18.18V338.57a18.21,18.21,0,0,0-18.18-18.18Z" fill="#000000"/><path class="cls-3" d="M426.55,350s55.95-148.08-12.22-110.38c0,63.25-82.66,110.38-82.66,110.38V512.05H517.58a22.28,22.28,0,0,0,21.89-18.12l22.38-117.51A22.3,22.3,0,0,0,540,350Z" fill="#000000"/><path class="cls-2" d="M517.58,518H331.67a6,6,0,0,1-5.95-6V350a6,6,0,0,1,3-5.17c.8-.45,79.66-46.19,79.66-105.19a6,6,0,0,1,3.07-5.22c14.91-8.25,26.37-9.1,34-2.47,20.36,17.62-.94,85.37-10.42,112.1H540a28.24,28.24,0,0,1,27.74,33.54L545.32,495.05A28.26,28.26,0,0,1,517.58,518Zm-180-11.91h180a16.36,16.36,0,0,0,16-13.28L556,375.29a16.33,16.33,0,0,0-16-19.38H426.54a6,6,0,0,1-5.58-8.07c14.36-38,29-96.28,16.72-106.93-3.83-3.28-11.68-.51-17.47,2.32-2.65,57.83-67.48,100.86-82.58,110.11Z" fill="#000000"/><path class="cls-3" d="M310.09,494.71a17.35,17.35,0,1,1-17.34-17.35A17.34,17.34,0,0,1,310.09,494.71Z" fill="#000000"/><path class="cls-2" d="M292.75,518A23.31,23.31,0,1,1,316,494.71,23.32,23.32,0,0,1,292.75,518Zm0-34.7a11.4,11.4,0,1,0,11.38,11.4A11.41,11.41,0,0,0,292.75,483.31Z" fill="#000000"/></svg>