<svg id="Capa_1" data-name="Capa 1" xmlns="http://www.w3.org/2000/svg" viewBox="0 0 768 768"><defs><style>.cls-1{fill:#43525d;}</style></defs><path class="cls-1" d="M667.67,478.24H327.12a10.52,10.52,0,1,1,0-21H667.67a.7.7,0,0,0,.71-.7V169.08a.71.71,0,0,0-.71-.71H100.33a.71.71,0,0,0-.71.71V456.5a.7.7,0,0,0,.71.7h71.1a10.52,10.52,0,1,1,0,21h-71.1A21.77,21.77,0,0,1,78.58,456.5V169.08a21.78,21.78,0,0,1,21.75-21.75H667.67a21.78,21.78,0,0,1,21.75,21.75V456.5A21.77,21.77,0,0,1,667.67,478.24Z"/><path class="cls-1" d="M627.5,443.81H328.11a10.52,10.52,0,0,1,0-21H627.5a10.52,10.52,0,0,1,0,21Z"/><path class="cls-1" d="M143.49,443.81h-20a10.52,10.52,0,1,1,0-21h20a10.52,10.52,0,0,1,0,21Z"/><path class="cls-1" d="M254.47,293.25a50,50,0,1,0-50-50A50.09,50.09,0,0,0,254.47,293.25Zm0-79a29,29,0,1,1-29,29A29,29,0,0,1,254.47,214.22Z"/><path class="cls-1" d="M476.22,244.18a10.52,10.52,0,0,0-14.88.09l-77.95,78.91a29.16,29.16,0,0,0-32.55,6.06L341,339.1l-28-28a50.41,50.41,0,0,0-35.89-14.87H214.59a48.18,48.18,0,0,0-48.13,48.13v77.5c0,14.23,9.73,26.62,23.13,29.46a29.9,29.9,0,0,0,14.87-.64l.62,137.09a26.73,26.73,0,0,0,2.75,18.84,26.27,26.27,0,0,0,15.64,12.63l.83.27a28.41,28.41,0,0,0,7.8,1.07,29.8,29.8,0,0,0,21.58-8.91c5,5.57,12.78,9,21.58,9a32.13,32.13,0,0,0,8.92-1.24,27,27,0,0,0,18.89-31.59l1.46-139.34V385.88l9.08,9,1.07,1.05c7.09,7.06,15.76,10.79,25.06,10.79,11,0,22.28-5.27,31.86-14.84l21-21a29.09,29.09,0,0,0,8.58-20.71A28.79,28.79,0,0,0,398.35,338l78-78.92A10.52,10.52,0,0,0,476.22,244.18ZM377.68,356.07l-21,21c-5.52,5.51-11.71,8.68-17,8.68-3.73,0-7.07-1.53-10.22-4.67L328.46,380c-9.84-9.79-16.58-16.5-27.07-26.82a10.51,10.51,0,0,0-17.9,7.49v87.72L282,589a10.46,10.46,0,0,0,.4,3,5.88,5.88,0,0,1-4,7.25c-3.42,1-7.82-.1-9-1.52l-4.09-139.56a10.52,10.52,0,0,0-10.48-10.21h0A10.51,10.51,0,0,0,244.23,458L239,596.45c-1,1.6-3.77,3.13-6.92,3.13a11.59,11.59,0,0,1-1.52-.1c-.17-.07-.67-.22-.84-.28a5.74,5.74,0,0,1-3.51-2.77,5.88,5.88,0,0,1-.51-4.48,10.36,10.36,0,0,0,.4-2.93l-.63-140.52V422.69a10.52,10.52,0,0,0-21,0,8.09,8.09,0,0,1-2.51,5.75,8.81,8.81,0,0,1-8,2.33c-3.67-.78-6.44-4.59-6.44-8.87V344.4a27.12,27.12,0,0,1,27.08-27.09h24.28V356a10.52,10.52,0,0,0,21,0V317.31h17.22a29.48,29.48,0,0,1,21,8.71l35.41,35.4a10.51,10.51,0,0,0,14.87,0l17.32-17.32a8.45,8.45,0,0,1,11.94,12Z"/></svg>