<svg xmlns="http://www.w3.org/2000/svg" id="Capa_1" data-name="Capa 1" viewBox="0 0 768 768"><defs fill="#000000"><style>.cls-1{fill:#f0f1f1;}.cls-2{fill:#231f20;}.cls-3{fill:#0066db;}</style></defs><circle class="cls-1" cx="252.95" cy="318.55" r="61.76" fill="#000000"/><path class="cls-2" d="M253,386.26a67.71,67.71,0,1,1,67.72-67.7A67.78,67.78,0,0,1,253,386.26Zm0-123.51a55.8,55.8,0,1,0,55.81,55.81A55.86,55.86,0,0,0,253,262.75Z" fill="#000000"/><path class="cls-1" d="M316.16,462.86H189.75V444.25A63.21,63.21,0,0,1,253,381h0a63.21,63.21,0,0,1,63.21,63.21Z" fill="#000000"/><path class="cls-2" d="M316.16,468.82H189.76a6,6,0,0,1-6-6V444.24a69.16,69.16,0,0,1,138.32,0v18.62A6,6,0,0,1,316.16,468.82ZM195.71,456.9h114.5V444.24a57.25,57.25,0,0,0-114.5,0Z" fill="#000000"/><circle class="cls-1" cx="516.68" cy="318.55" r="61.76" fill="#000000"/><path class="cls-2" d="M516.68,386.26a67.71,67.71,0,1,1,67.72-67.7A67.79,67.79,0,0,1,516.68,386.26Zm0-123.51a55.8,55.8,0,1,0,55.81,55.81A55.88,55.88,0,0,0,516.68,262.75Z" fill="#000000"/><path class="cls-1" d="M579.88,462.86H453.48V444.25A63.2,63.2,0,0,1,516.68,381h0a63.2,63.2,0,0,1,63.2,63.21Z" fill="#000000"/><path class="cls-2" d="M579.89,468.82H453.48a6,6,0,0,1-6-6V444.24a69.16,69.16,0,0,1,138.31,0v18.62A6,6,0,0,1,579.89,468.82ZM459.44,456.9H573.93V444.24a57.25,57.25,0,0,0-114.49,0Z" fill="#000000"/><path class="cls-1" d="M466.62,333.46a81.81,81.81,0,1,1-81.81-81.81A81.8,81.8,0,0,1,466.62,333.46Z" fill="#000000"/><path class="cls-2" d="M384.82,421.22a87.76,87.76,0,1,1,87.75-87.77A87.86,87.86,0,0,1,384.82,421.22Zm0-163.61a75.85,75.85,0,1,0,75.84,75.84A75.93,75.93,0,0,0,384.82,257.61Z" fill="#000000"/><path class="cls-3" d="M468.53,524.6H301.09V500a83.72,83.72,0,0,1,83.72-83.72h0A83.72,83.72,0,0,1,468.53,500Z" fill="#000000"/><path class="cls-2" d="M468.53,530.56H301.09a6,6,0,0,1-6-5.95V500a89.68,89.68,0,0,1,179.35,0v24.66A6,6,0,0,1,468.53,530.56ZM307,518.65H462.57V500A77.77,77.77,0,0,0,307,500Z" fill="#000000"/></svg>