<svg id="Capa_1" data-name="Capa 1" xmlns="http://www.w3.org/2000/svg" viewBox="0 0 768 768"><defs><style>.cls-1{fill:#43525d;}</style></defs><path class="cls-1" d="M497.8,566.74H270.2A16.67,16.67,0,0,1,253.67,550V396.52a16.67,16.67,0,0,1,16.53-16.77H497.8a16.66,16.66,0,0,1,16.52,16.77V550A16.66,16.66,0,0,1,497.8,566.74ZM274.06,546.35H493.94V400.14H274.06Z"/><path class="cls-1" d="M508.62,599.94H259.38a10.2,10.2,0,0,1,0-20.39H508.62a10.2,10.2,0,0,1,0,20.39Z"/><path class="cls-1" d="M384,483.44h-.85a10.2,10.2,0,0,1,0-20.39H384a10.2,10.2,0,0,1,0,20.39Z"/><path class="cls-1" d="M721.68,509.7H690.77c-1-81.4-16.64-121.34-56.4-145.52q-26.31-16-52.83-20.16a71.47,71.47,0,0,0,44.07-34.55,34.89,34.89,0,0,0,13.64-66.58c-3.86-43.25-41.43-69.71-76.43-69.71-39.88,0-72.74,30.66-76.44,69.73A34.89,34.89,0,0,0,500,309.47a71.23,71.23,0,0,0,44.13,34.58,132.74,132.74,0,0,0-33.1,9.9,10.2,10.2,0,0,0,8.27,18.64c34.87-15.47,69-12.52,104.46,9,28.58,17.38,45.48,44.45,46.6,128.1H629.82V460.55a10.2,10.2,0,1,0-20.39,0V509.7H542.79a10.2,10.2,0,0,0,0,20.39H721.68a10.2,10.2,0,1,0,0-20.39ZM624.57,289.19a15,15,0,0,1-2.78-.28,1.2,1.2,0,0,0-.2,0,14.61,14.61,0,1,1,3,.31Zm-61.75-95.62a57.75,57.75,0,0,1,49,28.47,71.87,71.87,0,0,0-97.44-.63C525,204.08,544.33,193.57,562.82,193.57Zm-76.34,81a14.63,14.63,0,1,1,17.58,14.31c-.07,0-.15,0-.23,0a14.36,14.36,0,0,1-2.73.28A14.64,14.64,0,0,1,486.48,274.57Zm33.82,29.22a34.93,34.93,0,0,0,.17-58.35,51.32,51.32,0,0,1,84.73,0,34.93,34.93,0,0,0,.13,58.34,51.57,51.57,0,0,1-85,0Z"/><path class="cls-1" d="M257,354a133.76,133.76,0,0,0-30.38-9.47,73.14,73.14,0,1,0-42.75,0c-16.77,3-33.52,9.54-50.19,19.68C93.87,388.36,78.27,428.3,77.23,509.7H46.32a10.2,10.2,0,1,0,0,20.39H225.21a10.2,10.2,0,0,0,0-20.39H158.57V460.55a10.2,10.2,0,1,0-20.39,0V509.7H97.62c1.12-83.65,18-110.72,46.6-128.1,35.42-21.53,69.58-24.48,104.46-9A10.2,10.2,0,0,0,257,354ZM152.41,274.57a52.74,52.74,0,1,1,52.73,52.73A52.8,52.8,0,0,1,152.41,274.57Z"/></svg>