<svg id="Capa_1" data-name="Capa 1" xmlns="http://www.w3.org/2000/svg" viewBox="0 0 768 768"><defs><style>.cls-1{fill:#43525d;}</style></defs><path class="cls-1" d="M291.91,463.3H207.44a9.9,9.9,0,0,0-9.9,9.9V587a9.91,9.91,0,0,0,9.9,9.91h84.47a9.91,9.91,0,0,0,9.9-9.91V473.2A9.9,9.9,0,0,0,291.91,463.3ZM282,577.13H217.34v-94H282Z"/><path class="cls-1" d="M434.54,390.31H350.07a9.9,9.9,0,0,0-9.9,9.9V587a9.91,9.91,0,0,0,9.9,9.91h84.47a9.91,9.91,0,0,0,9.9-9.91V400.21A9.9,9.9,0,0,0,434.54,390.31Zm-9.9,186.82H360v-167h64.67Z"/><path class="cls-1" d="M573.29,315.77H488.82a9.9,9.9,0,0,0-9.9,9.9V587a9.91,9.91,0,0,0,9.9,9.91h84.47a9.91,9.91,0,0,0,9.9-9.91V325.67A9.9,9.9,0,0,0,573.29,315.77Zm-9.91,261.36H498.72V335.57h64.66Z"/><path class="cls-1" d="M539,219.47l-7,40.66a9.9,9.9,0,0,0,8.09,11.42,9.54,9.54,0,0,0,1.68.15,9.92,9.92,0,0,0,9.75-8.23l11.12-65a9.89,9.89,0,0,0-7-11.19l-55.56-15.84a9.9,9.9,0,1,0-5.42,19L531.63,201,190.25,373.33A9.9,9.9,0,0,0,199.18,391Z"/></svg>