<svg xmlns="http://www.w3.org/2000/svg" xmlns:xlink="http://www.w3.org/1999/xlink" viewBox="0 0 3731.95 1299.41"><defs fill="#ededed"><style>.cls-1{fill:none;}.cls-2{isolation:isolate;}.cls-3{mix-blend-mode:soft-light;opacity:0.72;}.cls-4{clip-path:url(#clip-path);}.cls-5{fill:#bebebe;}.cls-6{fill:#ffffff;}.cls-7{fill:#e89811;}.cls-8{fill:#ca4539;}.cls-9{fill:#3462e0;}.cls-10{fill:#5389f3;}.cls-11{fill:#3766d8;}.cls-12{fill:#d95a58;}.cls-13{fill:#c54539;}.cls-14{fill:#e6b27e;}.cls-15{fill:#e39312;}</style><clipPath id="clip-path" fill="#ededed"><rect class="cls-1" x="-4225.68" y="2.2" width="3841.99" height="2160" fill="#ededed"/></clipPath></defs><g class="cls-2"><g id="Capa_1" data-name="Capa 1"><g class="cls-3"><g class="cls-4"><path class="cls-5" d="M-4597.62,897.4c-8.27-71.75,67.7-129.59,117.07-162.91A825.73,825.73,0,0,1-4398.1,686c80.85-41.9,167.35-71.93,255.59-93.86,177-44,366.48-59.32,548.3-42,332,31.56,638.95,178.49,969.54,219.68,169.69,21.15,348.36,27.69,518.32,5.37,146.53-19.25,253.08-92.25,378.28-164,72.75-41.68,150.45-75.62,231.92-96,77.9-19.49,154.11-1.87,229.72-15.61,41-7.46,67.16-30.32,94.4-60.83,55.86-62.56,113.57-103.74,189.51-140.7,166.82-81.2,331.58-144.45,489.78-242.36C-334.93-42.07-178.43-120.31,5.33-53.79c1.54.56,2.21-1.9.68-2.45-120.43-43.6-200.47-38.48-320.18,12.78-162.54,69.6-300.68,180.61-464.47,249.2-129.34,54.15-283.78,102-378.46,210-77.48,88.33-156.33,70.15-258.9,81.66-66,7.41-130.77,27.13-192.19,52C-1794.78,624.75-1932.25,755.7-2141,776.17c-202.1,19.83-411.08,8.51-610.47-28.53-354.38-65.84-679.81-218.25-1047.35-204.8-178.67,6.54-360.14,36.68-525.72,106-92.32,38.63-290.23,121.74-275.6,248.58.19,1.6,2.73,1.62,2.54,0Z" fill="#ededed"/><path class="cls-5" d="M-4590.38,957.09c-2.63-40.67,48.88-109,76.33-135.24,17.73-17,41.3-31.08,61.75-44.69a851.58,851.58,0,0,1,96.6-55c81.39-39.95,168.06-69,256.2-90,185.5-44,384.66-57.84,573.39-27,315.9,51.67,602.24,206,922.25,243.32,155.67,18.15,320.77,24.43,476.31,2.05,150.33-21.64,255.94-102.48,380-182.94,74.12-48.06,154.4-86.6,239.86-109.76,46.79-12.68,95.32-21.81,144-21.18,40,.51,81.87,15.43,121.86,9.45,35.3-5.27,60-22,84.31-47.16,49.69-51.62,75.44-98.66,140.1-139,159.11-99.4,341-146.42,498.49-248.6C-357.92,6.87-182.55-107.44,12.73-34.16c1.53.58,2.2-1.88.67-2.45-122.51-46-214.94-26.76-331.93,28.66C-393.76,27.69-463.61,72.7-533.44,117.73c-94.91,61.2-196.7,98.83-300.28,142.44-116.1,48.88-228.71,105.39-302,207-69.75,96.79-191.45,58.07-291.67,71.37-71.54,9.49-141.14,32.78-206.49,62.88-167,76.91-289.65,212.42-477.86,244.32-202.71,34.36-428.79,17.46-629.49-20.77-338.64-64.51-646-240.65-997.7-238.2-189.05,1.31-382.78,33.1-557.84,105.87-101.11,42-304.87,130.29-296.19,264.41.11,1.63,2.65,1.64,2.54,0Z" fill="#ededed"/><path class="cls-5" d="M-4583.14,1016.79c-2-40.43,46.44-107.26,73.28-134.3,17-17.14,39.59-31.69,59.3-45.69a847.14,847.14,0,0,1,93-56.87c83.68-44.54,173.88-76.74,265.66-99.87,188.2-47.43,390.93-63.08,582-23.59,311.26,64.34,584.83,231.75,904.37,268.92,157.54,18.33,331.51,28.39,487.7-4.78,156.73-33.29,259.78-137.53,389.81-222.38,73.37-47.88,155.53-86.18,241.12-106,46.82-10.82,95.56-18.34,143.79-15.64,41,2.3,84.39,20.82,126,16.17,100.45-11.22,125.22-134.61,195.87-188.52,156.87-119.71,353.94-155.21,517.44-263.35C-349.76,39-169.56-88.16,20.13-14.53c1.52.59,2.18-1.87.67-2.45-125.68-48.79-227.09-15.12-343,44.79C-390.23,63-454,105.24-517.91,147.21c-93.8,61.62-195.38,95-298.21,137.31-74.22,30.5-141.11,71.21-206.45,117.56-52.69,37.37-56.27,61-91.28,114.1-64.15,97.36-208.8,49.15-308.6,61.54-71.73,8.9-141.82,31.77-207.12,62.47-168.24,79.08-287.63,230-473.55,274.31-195.19,46.54-427.12,27-622.33-9.62C-3071,840.11-3375.14,630.27-3734.62,632c-181.89.86-368,34.18-536.15,104.26-105.31,43.88-321.86,140.71-314.91,280.57.08,1.62,2.62,1.63,2.54,0Z" fill="#ededed"/><path class="cls-5" d="M-4575.9,1076.48c-2.37-69.05,65.69-131.89,115.67-170.86a875.44,875.44,0,0,1,100.84-68c80.63-46.51,168.23-80.86,257.72-106,185.21-52,387.38-72,576.39-29.46,168.59,37.92,322,117.17,479.93,184.39,140.41,59.77,286.09,99,437.79,116.27,155.13,17.65,328.69,28.49,481.44-10.58,141.3-36.13,237.34-129.6,349.6-216,74.61-57.41,155.73-103.11,245.81-131.84,107.36-34.26,194.43-20.36,301.91-7.78,134.17,15.7,135.29-109.93,207.84-186.69,138.39-146.41,357.47-162.38,519.87-271.06C-350,77.78-162-70.84,27.52,5.1c1.52.6,2.18-1.85.68-2.45C-94.31-46.45-200-3.87-310.44,56c-75.06,40.73-144,90.42-215.57,136.69-95.74,61.91-205.58,83.83-307.82,130.89-60,27.64-114.17,64.8-165.8,105.76-18.65,14.8-36.58,28-49.73,47-24.81,35.78-27.85,94-65.49,121.64-51.45,37.79-147.55,22.6-207.69,16.39-31.6-3.26-63.81-2-95.3,1.87-77.35,9.4-152.56,35.31-222.2,69.76-165.13,81.68-278.46,238.25-457.16,295.41-191.87,61.36-435.28,37.27-630.19.94-347.35-64.76-641.19-304.62-1003.12-305.68-179.84-.52-365.45,36.5-530.2,108.63-107.47,47.06-322.6,149.55-317.73,291.16,0,1.63,2.6,1.64,2.54,0Z" fill="#ededed"/><path class="cls-5" d="M-4568.66,1136.17c-3.51-187.69,334.12-316.64,473.45-357.86,194.13-57.43,403.08-76,599.11-18.28,176.14,51.87,329.78,151.22,497.45,222.66,133.22,56.76,275.62,88.09,419.54,101.16,153.22,13.91,324.79,22.94,472.09-30,152.14-54.68,247.53-180.3,376.69-270.33,71.42-49.8,152.26-87.81,236.43-110.06,109-28.81,185.78-8.82,292.29,9,97.07,16.23,133.3-57.93,167.2-134.45C-942,339.28-694,341.07-522.67,233.38-364.43,134-165.31-57.95,34.92,24.73c1.51.62,2.17-1.84.67-2.45-130.75-54-251.16,11.81-363.51,79.1-76.77,46-146.79,104.17-225.13,147.16C-645.83,299.45-753.72,313-847,362.87c-54.23,29-137.12,80.48-171.36,132.41-61.46,93.2-31.59,212-210.43,177.81-144.26-27.6-263.52-18-399.09,47.63C-1797,802.61-1907,967.53-2080.36,1040c-189.4,79.16-433.14,58.17-631.19,23.94-351.1-60.68-635.15-329.39-996.58-341.88-183.81-6.35-376.7,35.36-543.48,111.83-110.21,50.52-322.27,159.23-319.6,302.31a1.28,1.28,0,0,0,2.55,0Z" fill="#ededed"/><path class="cls-5" d="M-4561.43,1195.87c-.5-189.63,326.93-326.08,472.25-371.23,192.6-59.85,398-78.35,591.46-13.44,177.65,59.58,326.4,173.58,496.22,249.12,132.22,58.82,275.13,89.33,418.91,101.46,157.35,13.28,331.05,19.55,479-44.67,154.8-67.2,251.16-209.57,388.07-302.47,72.54-49.23,156.11-87.1,241.59-106.5C-1363,683-1285.53,707-1179,727.94c98.7,19.39,144.8-58,171.47-141.18,70.53-220,317.1-215.35,487.18-314.9C-360.52,178.32-160.6-41.85,42,44.23c1.49.63,2.79-1.56,1.28-2.2-117.73-50-229,9.83-330.21,70.08C-358.36,154.62-423.78,205.37-493,251c-94.48,62.26-204.38,73.87-305.07,120.61-63,29.24-132.31,76.79-175.08,132.48-41.2,53.64-35.08,147-91.56,189.7-33.79,25.55-119.4,27-157.46,18.35-18.83-4.27-36.44-11.92-55.54-15.62-29.26-5.68-59.42-7.28-89.15-6.23-73.41,2.58-146.1,21.91-213.77,49.69-179.23,73.6-283,226.51-440.37,329.8-189,124.11-447.49,109.86-662.26,77.83-188.87-28.16-351.94-101.69-516.36-195.89-145.68-83.47-298.47-163.74-468.16-181.31-193.08-20-401.43,28.22-575.28,111.59-112.66,54-321.25,168.2-320.86,313.85a1.27,1.27,0,0,0,2.54,0Z" fill="#ededed"/><path class="cls-5" d="M-4554.19,1255.56c1.46-106.56,122.62-197.73,201.43-253.46,81.7-57.77,173.94-101,268.9-131.9,200-65.09,407.2-78.66,604.18,1.86,164.91,67.42,300.37,184.92,460.44,260.86,135.65,64.35,284.35,95.72,433.45,107,152,11.53,314.62,14.91,456.58-48.49,164-73.24,260.27-228.84,404.39-329.51,72.43-50.61,154.67-89.12,240.14-111.43,116-30.29,201.38-12.46,312.29,18.89,100.14,28.31,155.15-30.39,185.32-120.89,31.61-94.83,61.41-159.61,150-218.08,93.48-61.7,205.73-66.27,304.64-113.89C-362.52,234.74-160.76-27.87,49.41,63.85c1.48.65,2.78-1.54,1.28-2.19C-74.9,6.85-201.69,91.89-303.79,158.28c-77.61,50.46-148.95,115.23-232.46,155.4-92.82,44.66-199.57,51-288.14,105.86-49.59,30.73-114,81-141,133.58-8.09,15.72-10,43.62-14.39,60.56-4,15.32-8,30.75-13.32,45.65-23.58,65.63-40.17,80.91-112.28,94.83-75,14.49-98.24-6.5-166.52-19.07-34.67-6.38-69.93-7.75-105.1-5.45-73.82,4.84-146.44,25.88-214.12,55.07-183,78.94-285.29,240.67-444.3,351-179.37,124.44-410.51,119.92-619,95.07-207.07-24.69-381.25-101-555.33-212.57-139.91-89.69-286.72-178.58-454.59-201.29-190.88-25.82-400.79,27-571.14,112.54-115.41,57.93-319.15,178.68-321.17,326.11a1.27,1.27,0,0,0,2.54,0Z" fill="#ededed"/><path class="cls-5" d="M-4546.95,1315.25C-4541.14,1124-4246.47,975-4094.74,920.8c211-75.41,428.22-85.95,632.26,14.13,156.19,76.61,281.81,202,438.18,277.83,130.4,63.25,274.33,93.16,418.15,104.16,156.46,12,321.19,13.19,465.14-57.35,146.27-71.66,236.61-207.28,357.46-311,148.94-127.84,378.26-224.66,573.8-158.49,107.36,36.33,189.2,56.21,239.62-67.9,14.34-35.29,17.24-72.49,27.71-108.58C-926.29,558-887,511.4-843,474.14c97.26-82.38,218.43-76,327.55-128.7C-351.9,266.5-146.38-7.48,56.81,83.48c1.48.67,2.77-1.52,1.28-2.19C-69.47,24.18-206,127.42-305.45,196.19c-79.05,54.68-153.76,127-245,160.68-90.46,33.34-188.1,38.79-269,95.66-40.14,28.2-100.27,81.87-119.56,129.72-45.79,113.6-14.33,285.85-226.84,223-155.4-46-284-44.57-435.66,24.45-167,76-265.87,213.38-399.55,331.68-184.57,163.34-422.62,174.23-657.15,148.3-205.39-22.7-382.2-95.09-549.76-214.35-143.5-102.13-291.88-208.49-471-233.75-189.2-26.68-397.78,32-563.33,122.19-114.73,62.52-302.66,185.34-307.1,331.51-.05,1.64,2.49,1.64,2.54,0Z" fill="#ededed"/><path class="cls-5" d="M-4539.71,1375c16.23-207.06,311.17-363.45,481.19-420.44,221.73-74.33,431.72-64.06,632.42,60.19,136.15,84.28,246.65,205.06,391.14,276.59,134.6,66.63,284.34,95.55,433.35,104.62,159,9.68,319.53,4.15,461.51-75.68,151.11-85,241.48-238.46,374-345.77C-1590.14,832-1363.8,767.12-1149.41,850.21c93.58,36.26,163.86,19.83,204.48-77.8,37.8-90.83,26.14-174.79,99.8-251.78,98.55-103,226.85-90.09,346.38-146.17,157.8-74,366.43-361.49,563-271.35,1.48.68,2.77-1.51,1.28-2.19C-63.9,41.57-210.32,164-306.72,234.54-392.1,297-464.2,364.73-568.09,395.37-648.46,419.07-731.73,425.05-801,477-846.6,511.26-896.68,566.21-914,620.83c-10.26,32.27-9.3,69.39-18.06,102.53-6.41,24.25-13.41,48.48-25.47,70.76-39.11,72.25-136.88,74.19-203.86,47.85-140.91-55.42-282.94-39.52-421.34,19.68-186.18,79.64-290.66,231.22-434.68,364.41-174.24,161.13-390.71,183.56-618.26,164.89-211.34-17.35-399.6-82.52-567.66-212.52-136.9-105.89-270.29-221.39-443.05-262.82-186.44-44.72-396.19,12.66-562.2,99.92-128.69,67.64-321.16,200.39-333.63,359.42-.13,1.63,2.41,1.62,2.54,0Z" fill="#ededed"/><path class="cls-5" d="M-4532.48,1434.64c19.68-212.2,300.84-374.64,477.85-436.4,227.3-79.31,440.75-56.37,636.5,85.7,132.52,96.19,238,223.12,388,294.54,143.32,68.25,303.34,92.61,460.8,97.16,156.9,4.53,308.46-14.72,441.26-104.51,154.19-104.26,246-275.28,397.5-383.26,170-121.13,389.74-184.51,588-100.48,96.34,40.84,177.15,44.15,219.86-65.82,28.86-74.31,20.24-159.14,60-229.72C-782.1,448.64-631.3,461-498.62,409.65c77.69-30,140.3-94.47,205.62-144.11,91.3-69.39,242.37-200.18,364.6-142.8,1.47.69,2.76-1.5,1.28-2.19-130.63-61.32-286.44,80.66-380,152.69C-390.71,337.6-461.7,402.53-568.4,426.65-655.56,446.34-740,458.32-808.27,520.9c-141.27,129.44-48.41,480.78-345.93,358.24-137.8-56.76-284.52-37.19-419.81,19-176.91,73.54-287.23,207.31-414,344.61-169.68,183.8-371.56,241-616.82,228.94-222-10.91-429.46-69.07-602.48-212.52-129.91-107.7-246.06-228.27-409.56-285.32-192-67-413.84-7.35-586.57,87.19-132,72.22-316.57,211.51-331.6,373.56-.15,1.63,2.39,1.62,2.54,0Z" fill="#ededed"/><path class="cls-5" d="M-4525.24,1494.33c23.27-217,290.59-386.86,474.42-452.68,240.34-86.06,458.16-42.16,649.45,124.26,123.38,107.33,223.08,231.8,375.52,300.46,147.44,66.4,313,86.78,473.4,87.4,158.23.61,307.81-35.27,434.29-134.41,154.32-121,248.07-301,414.81-409.24,81.19-52.69,172.24-92.53,267.11-112.53,132-27.82,222.24.92,343,47.76,100.22,38.88,172.2,6.68,204.69-96.75,25-79.6,15-167.33,56.71-241.69,83.65-149,235.59-115.4,367.13-174.66,65.25-29.39,119-85.82,174.23-130C-204.23,233.32-42.32,84.15,79,142.37c1.46.7,2.75-1.49,1.28-2.2C-38.81,83-183.3,214.83-268.27,281.39c-84.23,66-158.18,142.81-265.25,169C-626.19,473.13-716.23,476-788.36,546c-123.32,119.58-40.75,484.59-302.9,395.81-72.75-24.64-131.34-57.14-211-59.47-86.41-2.53-172.77,17-252.88,48.58-182.31,71.79-300.08,202.72-425.53,347.58-165.68,191.32-354.07,278.85-608.55,272.17-226.39-5.94-449.46-57-623.53-208.91-131.6-114.83-238.77-249.7-405.68-316.55-190-76.1-408.76-16.37-580.22,81.06-135.51,77-311.4,222.39-329.17,388.08-.17,1.63,2.37,1.62,2.54,0Z" fill="#ededed"/><path class="cls-5" d="M-4518,1554c27.07-221.94,278.64-399.55,470.51-469.66,255.51-93.36,473.33-22.3,658.76,167.8,112.44,115.27,206.11,231.94,357.86,296.63,153.17,65.3,329.63,84.41,494.9,82.2,149.12-2,287.56-50.77,403-145.7,160-131.54,255.47-322.7,432.5-436.85,81.82-52.75,173.59-92.28,269-112.17,135.78-28.32,236-.95,359.63,53.62,106.44,47,181.17,4.86,213.24-102.81,22.8-76.56,12.82-160.23,42.37-234.48,65.2-163.84,215.78-137.13,351.8-185.74,68.57-24.51,120.46-80.18,175.21-126.14,83.43-70,254.31-238.2,375.64-178.73,1.46.72,2.75-1.48,1.28-2.2-123.93-60.74-282.3,98.85-367.41,169.63-86.59,72-155.83,134.59-271.51,154.23-87.79,14.91-168.84,28-228.46,100.18-32.31,39.14-48.49,83-56,132.36-6.85,44.91-7.81,90.39-17,135.06-3.18,15.52-6.6,31.53-11.59,46.64-25.08,75.87-91.69,112.82-174.34,102.93-45.93-5.49-95.18-49.38-142.58-63.24-37.52-11-76.54-16.34-115.57-17.32-91.9-2.32-184,20.18-268.57,54.9-176.12,72.35-293.93,199.61-413.24,343.25-158,190.23-335.78,314.11-591.85,309.78-219-3.71-456-39.09-629.11-184.62-144.76-121.67-242.82-285-420.45-366.41-187.27-85.78-404.54-26.48-574.56,73.68-139.22,82-305.31,233.75-326,403.18-.2,1.62,2.34,1.6,2.54,0Z" fill="#ededed"/><path class="cls-5" d="M-4510.81,1614.06c27.27-199.08,219.55-371.77,390.49-454.86,119.66-58.16,265.72-100.1,398.26-65.4,119.52,31.29,219.89,112,301.26,202.06,111.19,123.1,199.5,253,354.51,324.41,151.42,69.72,327.59,90.08,492.82,88.25,158.37-1.75,304.7-54.47,425.36-157.69,161.76-138.39,257.38-336.45,438.06-455.85,187.26-123.75,420.09-179.84,628-77.91,98.75,48.41,192.53,64.64,241.9-54.54,28.26-68.25,26.57-144.27,34.23-216.35,8.12-76.43,41.36-149.25,109.37-191.2,61.46-37.91,130.58-33,198.29-47,86.81-18.06,135.5-62.06,200.32-119.14C-218.1,318.46-29,120.2,93.79,181.63c1.46.73,2.74-1.46,1.28-2.2C-31.58,116.09-205.54,304.29-289.3,377.76c-31.08,27.26-60.8,57-94.66,80.82-58.66,41.27-117.2,45.28-185.06,55.88-76.19,11.9-142.13,31.09-190.28,95-112.47,149.35,11.15,564.38-321.49,405.39-153-73.15-307.84-68.06-465.87-7-186.6,72.07-312.54,203.42-435.54,356.38-151.89,188.88-321.18,333.25-575,341.65-214.87,7.12-458.49-28.41-632.63-163.46-155.86-120.87-242.8-308.44-420.46-405.64-321.88-176.11-853.16,112.93-903,476.6-.22,1.6,2.23,2.3,2.45.68Z" fill="#ededed"/><path class="cls-5" d="M-4503.57,1673.75c32.08-210.76,215.84-391.14,400.83-479.2,121.89-58,264.11-91.33,395.53-46.58,116.87,39.8,209.12,131.43,283.77,226.11,97.34,123.44,179.71,247.91,325.06,319.45,152.22,74.94,335.63,97,503.6,92.43,161.18-4.42,310.56-62.62,431.25-169.81,155.73-138.31,249.16-333.08,419.42-457.36,179.85-131.28,444.7-219.57,656.34-113.11,104,52.3,214.47,102.79,274.27-33.85,29.54-67.49,29.36-144.19,34-216.22C-775.27,730.29-765.64,666-720,614.87c64.86-72.7,152.44-64.37,238.86-79.37,81.48-14.15,127.47-53.84,186.34-107.88,78.91-72.44,273-289.09,396-226.36,1.46.74,2.75-1.45,1.28-2.2C-20.63,136.3-198.4,336-276.27,407.09c-34.64,31.65-70.38,71.81-111.1,95.92-61.78,36.59-131.73,29.22-199,41.48-72.4,13.19-130.9,46.8-166.05,113.34-30.59,57.92-27.74,120.28-31.8,183.68-3.15,49.13-7.51,100.27-23.38,147.19-8.35,24.68-23.84,59.63-44.33,78.83-78.77,73.8-154,19.46-221.61-16.74-151.39-81.09-329-61.2-483.59,1.35-193.55,78.3-320.22,218.76-446.34,379.63-149.75,191-321.27,339.37-575.47,350.94-212.1,9.66-454.35-24.89-625.86-159.17-153.36-120.07-228-312-392.74-421.76-334.17-222.51-851.78,98.9-908.46,471.3-.24,1.6,2.2,2.29,2.45.67Z" fill="#ededed"/><path class="cls-5" d="M-4496.33,1733.45c36.37-216.94,202.14-403.64,396.39-497,137.82-66.24,290.85-93.79,431.34-18.26,106.09,57,181.67,150,248.2,247.76,92.09,135.27,179.44,255.23,334,322.79,156.29,68.3,347.87,88.2,516.3,70.25,158-16.84,299.83-87.84,412.87-198.57,159.27-156,257.69-361.41,448.9-486.13,189.23-123.42,445.09-192.47,654.07-78.09,107.28,58.71,215.44,89.65,271.76-46.29,29.34-70.82,28.51-150.81,31-226,2.33-71.86,7-155,69.89-204.17,65.25-51,141.34-45.38,217.9-56.73,87.63-13,134.58-60.16,195.94-118.72,72.86-69.54,261.32-283.15,376.36-223.41,1.45.76,2.74-1.44,1.28-2.19C-11.69,155.56-195.73,372-269.58,442.49c-31.65,30.21-63.34,67.29-101,89.71-61.12,36.39-131.56,25.71-198.24,37.2C-642.1,582-698.24,614.5-730.67,683.75-758.5,743.17-752.58,805.48-755,869c-1.88,48.9-5.1,99-18.56,146.37-9.37,32.94-23.21,77.57-51.89,99.29l-126.09,29.45a369.84,369.84,0,0,1-88.91-42.77c-157.59-86-328.32-80.15-494.56-17.57-179.54,67.57-312.1,187.2-429,336.54-158.18,202.13-306.58,391.4-576.42,431.74-214.92,32.14-477.24-.25-657.67-129-166.24-118.57-230.56-326.84-389.34-453.46-343.9-274.25-847.62,83-911.35,463.15-.27,1.6,2.18,2.29,2.45.68Z" fill="#ededed"/><path class="cls-5" d="M-4489.1,1793.14c45-245.22,218-454.67,452.37-542.07,288.68-107.68,476.54,81.33,615.87,310.31,82.8,136.08,172.46,247.61,323.15,310.72,161.67,67.7,362.61,86.75,534.92,58.91s317.72-120.65,431.48-251c147.54-169,253.24-364.49,451.34-483.06,200.25-119.86,447.65-171,658.38-50.24,121.57,69.67,233.18,68.8,277.78-80.8,22.59-75.74,20-155.83,19.75-233.88-.19-67,9.62-139.21,61.32-188.11,66.48-62.88,153.15-43,233.27-55.75C-346.28,575-302,520.67-245.13,464.31-174.17,394,6.78,182.78,116,240.51c1.44.77,2.73-1.43,1.28-2.19C0,176.34-187.87,403.74-256.39,471.93c-29.76,29.62-60.94,67.67-97.38,89.47-61.36,36.69-130.89,22.67-197.45,32.91C-624.95,605.66-679.91,638.93-709,709.9c-27.42,66.87-15,140-17.48,210.24-1.69,48.34-5.65,98.61-19.76,145.13-8.71,28.7-19.62,56.8-39.59,79.65-73.87,84.52-160.09,41.62-234.45-.37-161.62-91.26-338.63-86.61-510.57-22.43-181.59,67.78-318.52,188.6-435.82,340.16-147.43,190.48-279.59,384.2-525.12,451.11-217.81,59.35-505.82,30.2-698.25-91.9-183.9-116.69-237.13-336.42-390.09-481.3-349.37-330.93-840.55,66-911.4,452.27-.29,1.6,2.16,2.29,2.45.68Z" fill="#ededed"/><path class="cls-5" d="M-4481.86,1852.83c44-224.31,164.46-419.55,371.73-526.94,154.87-80.24,318.63-91.35,460.35,21.73,100.55,80.23,157.19,189.12,218.17,299.28,79.61,143.84,177,254.18,334.09,313.38,173.38,65.33,388.75,81.12,568.37,34.7,177-45.74,313.39-161.44,423.57-303.26,165.47-213,303.87-421.14,565.31-523.2,111-43.35,232.3-66.11,351.07-48.62a470.17,470.17,0,0,1,175.27,62.28c39.07,23.26,77.54,51.86,123.35,60.45,139.93,26.26,183.82-125.7,193.25-234.76,9.3-107.63-33.55-254.7,53.48-339.73,91.18-89.09,235.55-15.53,333.6-94.5,58.61-47.2,106.82-111.44,161-163.69,53.78-51.86,184.53-197.18,272.62-149.81,1.44.78,2.73-1.42,1.28-2.19-95.7-51.47-236.42,111.38-293,167.13C-218.55,474.5-263.86,535.9-320.7,577.54c-91.44,67-213.17,7.83-304.2,71.34-62.92,43.9-76.44,122.23-75.67,193.56,1.08,99.12,11.38,198.7-26.63,293.47-75.39,187.93-229.1,60.38-350.36,10.64-90.76-37.24-191.41-42.43-287.62-28.19-201,29.76-388.65,138.51-524.21,288.07-180.42,199.06-295.08,454.64-559.42,559.72-216.2,85.95-512.21,68.07-718.82-39.72-205-107-253.76-319.32-388.23-488.78-155.65-196.14-371.15-221.52-584.32-98.18-191.94,111.06-302.21,299.08-344.13,512.69-.31,1.59,2.14,2.28,2.45.67Z" fill="#ededed"/></g></g><path class="cls-6" d="M1678.65,1054.81a21.66,21.66,0,0,1,8.09-9.4,23,23,0,0,1,12.48-3.29,21.55,21.55,0,0,1,19.29,11.09,31,31,0,0,1,3.88,12.68h12.14a43.86,43.86,0,0,0-5.27-18.84,30.92,30.92,0,0,0-12.18-12.17,36.5,36.5,0,0,0-17.86-4.22,37.32,37.32,0,0,0-19,4.63,30.8,30.8,0,0,0-12.31,13.36q-4.29,8.73-4.29,20.61v48q0,11.88,4.29,20.56a30.81,30.81,0,0,0,12.31,13.32l8,4.63h11a36.31,36.31,0,0,0,17.78-4.21,31.24,31.24,0,0,0,12.22-12.18,43.6,43.6,0,0,0,5.31-18.84h-12.14a31.22,31.22,0,0,1-3.88,12.78,21.86,21.86,0,0,1-8,8.17,22.21,22.21,0,0,1-11.24,2.83,23.2,23.2,0,0,1-12.48-3.25,21.33,21.33,0,0,1-8.09-9.36,33.74,33.74,0,0,1-2.87-14.45v-48A33.74,33.74,0,0,1,1678.65,1054.81Z" fill="#ededed"/><path class="cls-6" d="M1773.32,1140.1q-2.61-3.07-2.61-8.64v-99.53h-12.13v99.36q0,11.06,5.35,17.11t15.12,6.07h8.43v-11.29h-6.91A9,9,0,0,1,1773.32,1140.1Z" fill="#ededed"/><path class="cls-6" d="M1853.12,1069.26a34.26,34.26,0,0,0-16.48-3.71q-9.69,0-16.56,3.71a24.67,24.67,0,0,0-10.45,10.75q-3.59,7-3.58,17v27q0,10,3.58,17.2a24.48,24.48,0,0,0,10.45,10.87q6.87,3.71,16.56,3.7a34.26,34.26,0,0,0,16.48-3.7,24.75,24.75,0,0,0,10.49-10.79q3.63-7.08,3.63-17V1097q0-9.95-3.63-17A24.87,24.87,0,0,0,1853.12,1069.26Zm2,55q0,9.53-4.84,14.83t-13.7,5.31q-8.77,0-13.57-5.27t-4.8-14.87v-27.4q0-9.51,4.8-14.74t13.57-5.23q8.76,0,13.65,5.23t4.89,14.74Z" fill="#ededed"/><path class="cls-6" d="M1939.15,1126.57q0,8.68-4.67,13.28t-13.53,4.59q-8.85,0-13.61-4.93t-4.77-13.78V1067h-12.13v58.66q0,14.32,6.74,22.2t19,7.88q9,0,15.13-3.83a22.35,22.35,0,0,0,7.79-8.64v11.21h12.06V1067h-12.06Z" fill="#ededed"/><path class="cls-6" d="M2025,1078.24a26.75,26.75,0,0,0-8.64-8.77,27.58,27.58,0,0,0-14.62-3.92,24.91,24.91,0,0,0-13.82,3.71,23.55,23.55,0,0,0-8.77,10.75,42.82,42.82,0,0,0-3,17v28.07a41,41,0,0,0,3.07,16.65,23,23,0,0,0,8.94,10.57,26.1,26.1,0,0,0,14,3.62,28.14,28.14,0,0,0,14.91-3.74,21.29,21.29,0,0,0,7.92-8.9v11.21h12.14V1031.93H2025Zm-2.19,57.44a17,17,0,0,1-6.32,7.07,17.66,17.66,0,0,1-9.69,2.62q-8.85,0-13.7-5.35t-4.84-15v-27.9q0-10,4.84-15.55t13.7-5.52a17.68,17.68,0,0,1,9.73,2.61,17.31,17.31,0,0,1,6.28,7,22.22,22.22,0,0,1,2.19,10v30A22.32,22.32,0,0,1,2022.78,1135.68Z" fill="#ededed"/><polygon class="cls-6" points="2083.94 1043.22 2114.28 1043.22 2114.28 1154.47 2126.5 1154.47 2126.5 1043.22 2156.93 1043.22 2156.93 1031.93 2083.94 1031.93 2083.94 1043.22" fill="#ededed"/><path class="cls-6" d="M2208.62,1069.64q-6.82-4-16.43-4-10,0-17,4.22a27.1,27.1,0,0,0-10.75,12.21q-3.7,8-3.7,19.39v20.14q0,10.8,3.83,18.42a26.83,26.83,0,0,0,11.13,11.67l7.29,4h10.28q11.13,0,18.54-5.14t9.78-14.83l-11.38-3.54a16.67,16.67,0,0,1-6.07,9,17.77,17.77,0,0,1-10.87,3.24q-9.86,0-15.34-5.9t-5.48-16.6v-6h50.15v-16q0-10.87-3.58-18.59A25.74,25.74,0,0,0,2208.62,1069.64Zm2.36,35.1h-38.52v-4.21q0-11.29,5.14-17.49t14.59-6.19q8.92,0,13.82,5.9c3.25,3.93,4.92,9.41,5,16.43Z" fill="#ededed"/><path class="cls-6" d="M2289.39,1141q-4.47,3.4-11.55,3.41-9.86,0-15-5.35t-5.19-15.47v-25.53q0-10.36,5.19-15.81t15-5.43q6.91,0,11.21,3.62a18.73,18.73,0,0,1,5.9,10.37l11.8-3.54a25.42,25.42,0,0,0-4.93-11.76,23.71,23.71,0,0,0-9.9-7.42,37.86,37.86,0,0,0-14.33-2.48q-10.37,0-17.57,3.75a24.63,24.63,0,0,0-10.88,11q-3.66,7.24-3.66,17.7v25.53q0,10.38,3.7,17.62a24.25,24.25,0,0,0,10.88,10.87l7.16,3.62h10.37a40.31,40.31,0,0,0,14.37-2.36,22.19,22.19,0,0,0,9.9-7.12,27,27,0,0,0,5.06-11.5l-11.29-3.54A18,18,0,0,1,2289.39,1141Z" fill="#ededed"/><path class="cls-6" d="M2363.49,1065.55a29.51,29.51,0,0,0-15.17,3.76,24.56,24.56,0,0,0-8.43,8.49v-45.87h-12.13v122.54h12.13v-57.82q0-9.69,4.81-14.7t13.82-5q9.2,0,14.08,5.14t4.88,15v57.4h12.14v-57.4q0-15.33-6.66-23.43T2363.49,1065.55Z" fill="#ededed"/><path class="cls-6" d="M2452.35,1065.55a28.33,28.33,0,0,0-15.13,4,25.17,25.17,0,0,0-8.47,9V1067h-12.13v87.48h12.13v-57.9q0-9.61,4.8-14.62t13.83-5q9.18,0,14.07,5.14t4.89,14.92v57.48h12.14v-57.4q0-15.33-6.66-23.43T2452.35,1065.55Z" fill="#ededed"/><path class="cls-6" d="M2550.44,1069.26a34.29,34.29,0,0,0-16.48-3.71q-9.71,0-16.56,3.71A24.61,24.61,0,0,0,2507,1080q-3.59,7-3.58,17v27q0,10,3.58,17.2A24.43,24.43,0,0,0,2517.4,1152q6.85,3.71,16.56,3.7a34.28,34.28,0,0,0,16.48-3.7,24.86,24.86,0,0,0,10.49-10.79,37,37,0,0,0,3.63-17V1097q0-9.95-3.63-17A25,25,0,0,0,2550.44,1069.26Zm2,55q0,9.53-4.85,14.83t-13.7,5.31q-8.76,0-13.57-5.27t-4.8-14.87v-27.4q0-9.51,4.8-14.74t13.57-5.23q8.77,0,13.66,5.23t4.89,14.74Z" fill="#ededed"/><path class="cls-6" d="M2604.61,1140.1q-2.61-3.07-2.61-8.64v-99.53h-12.13v99.36q0,11.06,5.35,17.11t15.12,6.07h8.43v-11.29h-6.91A9,9,0,0,1,2604.61,1140.1Z" fill="#ededed"/><path class="cls-6" d="M2684.41,1069.26a34.26,34.26,0,0,0-16.48-3.71q-9.69,0-16.56,3.71a24.67,24.67,0,0,0-10.45,10.75q-3.59,7-3.58,17v27q0,10,3.58,17.2a24.48,24.48,0,0,0,10.45,10.87q6.87,3.71,16.56,3.7a34.26,34.26,0,0,0,16.48-3.7,24.75,24.75,0,0,0,10.49-10.79q3.63-7.08,3.63-17V1097q0-9.95-3.63-17A24.87,24.87,0,0,0,2684.41,1069.26Zm2,55q0,9.53-4.84,14.83t-13.7,5.31q-8.78,0-13.57-5.27t-4.8-14.87v-27.4q0-9.51,4.8-14.74t13.57-5.23q8.76,0,13.65,5.23t4.89,14.74Z" fill="#ededed"/><path class="cls-6" d="M2770.53,1078.21a26.32,26.32,0,0,0-8.56-8.65,27.58,27.58,0,0,0-14.62-3.92,25.06,25.06,0,0,0-13.82,3.67,23.16,23.16,0,0,0-8.77,10.74,43.16,43.16,0,0,0-3,17v28a41.58,41.58,0,0,0,3,16.65,22.51,22.51,0,0,0,8.9,10.53,26.55,26.55,0,0,0,14.12,3.58,28.94,28.94,0,0,0,14.91-3.66,20,20,0,0,0,7.84-8.76v16q0,9.43-5.1,14.58t-14.7,5.14a17.18,17.18,0,0,1-11-3.49A16.29,16.29,0,0,1,2734,1166l-10.95,3.38q1.52,9.78,8.76,15.21L2739,1190h11.63q10.2,0,17.4-3.7a25.13,25.13,0,0,0,11-10.75q3.75-7,3.75-17V1067h-12.22Zm-2.15,57.38a16.87,16.87,0,0,1-6.24,7.08,17.6,17.6,0,0,1-9.73,2.61q-8.85,0-13.7-5.31t-4.84-14.91v-27.9q0-10,4.84-15.55t13.7-5.52a17.89,17.89,0,0,1,9.77,2.61,16.91,16.91,0,0,1,6.29,7.08,21.84,21.84,0,0,1,2.06,10v30A22.47,22.47,0,0,1,2768.38,1135.59Z" fill="#ededed"/><path class="cls-6" d="M2834.8,1139.3,2812.11,1067h-12.48l30.13,89.72-2.65,9.14q-2.37,7.25-6.28,10.45t-10.91,3.2h-2.11V1191h2.11a38.5,38.5,0,0,0,12-1.64,19,19,0,0,0,8.22-5.18,24,24,0,0,0,5-9.19l33-108h-12.47Z" fill="#ededed"/><path class="cls-6" d="M2974.19,1094.38a86.05,86.05,0,0,0-15.38-6.24,2.71,2.71,0,0,1-.76-.25,2.79,2.79,0,0,0-.84-.25,2.7,2.7,0,0,1-.55-.26,2.64,2.64,0,0,0-.72-.25,141,141,0,0,1-14.32-5,24.63,24.63,0,0,1-8.9-6.33q-3.58-4-3.58-10.53v-3q0-9.85,6.32-15.08t18.29-5.23q8.52,0,13.82,4t8.09,12.78l11.38-4a38.79,38.79,0,0,0-6.7-13.7,25.48,25.48,0,0,0-10.79-7.79,43.73,43.73,0,0,0-15.8-2.53q-11.88,0-20,3.71a26.81,26.81,0,0,0-12.31,10.83q-4.21,7.13-4.21,17.57v3q0,9.86,4.34,15.76a28.39,28.39,0,0,0,10.74,9,132.65,132.65,0,0,0,16.78,6.36l2.27.6a2,2,0,0,1,.47.21l.38.21a112.86,112.86,0,0,1,13,5,21.87,21.87,0,0,1,8.18,6.58,17.2,17.2,0,0,1,3.2,10.7v3.54q0,10.11-6.49,15.42t-18.71,5.31q-9.76,0-16.44-4.3t-9.18-13.82l-11.55,4.3a32.88,32.88,0,0,0,7.29,14.37,29.66,29.66,0,0,0,12.61,8.17l7.5,2.57h9.77q12.06,0,20.4-3.62a26.27,26.27,0,0,0,12.6-10.83q4.26-7.2,4.25-17.66v-4q0-9.6-4.12-15.76A29.16,29.16,0,0,0,2974.19,1094.38Z" fill="#ededed"/><path class="cls-6" d="M3062.46,1069.31a24.17,24.17,0,0,0-13.61-3.76,29.1,29.1,0,0,0-15.22,4,24.5,24.5,0,0,0-8.47,8.63V1067H3013v123h12.13v-46.57a19.75,19.75,0,0,0,7.67,8.48,28.8,28.8,0,0,0,15.09,3.79A25.64,25.64,0,0,0,3062,1152a23.59,23.59,0,0,0,8.93-10.92,43.66,43.66,0,0,0,3.08-17.28V1097.5a45.4,45.4,0,0,0-3-17.32A23.26,23.26,0,0,0,3062.46,1069.31Zm-.38,54.48q0,10.2-4.89,15.84t-13.82,5.65a17.72,17.72,0,0,1-9.78-2.65,17,17,0,0,1-6.28-7.29,24.38,24.38,0,0,1-2.15-10.37V1095.9a23.44,23.44,0,0,1,2.15-10.12,16.82,16.82,0,0,1,6.28-7.16,18,18,0,0,1,9.78-2.62q8.93,0,13.82,5.65t4.89,15.85Z" fill="#ededed"/><path class="cls-6" d="M3145.12,1069.64q-6.82-4-16.43-4-10,0-17,4.22a27,27,0,0,0-10.74,12.21q-3.72,8-3.71,19.39v20.14q0,10.8,3.83,18.42a26.83,26.83,0,0,0,11.13,11.67l7.29,4h10.28q11.13,0,18.54-5.14a24.27,24.27,0,0,0,9.78-14.83l-11.38-3.54a16.57,16.57,0,0,1-6.07,9,17.77,17.77,0,0,1-10.87,3.24q-9.86,0-15.34-5.9t-5.48-16.6v-6h50.15v-16q0-10.87-3.58-18.59A25.74,25.74,0,0,0,3145.12,1069.64Zm2.36,35.1H3109v-4.21q0-11.29,5.14-17.49t14.59-6.19q8.92,0,13.82,5.9t5,16.43Z" fill="#ededed"/><path class="cls-6" d="M3225.89,1141c-3,2.27-6.82,3.41-11.55,3.41q-9.86,0-15-5.35t-5.18-15.47v-25.53q0-10.36,5.18-15.81t15-5.43q6.91,0,11.21,3.62a18.73,18.73,0,0,1,5.9,10.37l11.81-3.54a25.43,25.43,0,0,0-4.94-11.76,23.71,23.71,0,0,0-9.9-7.42,37.82,37.82,0,0,0-14.33-2.48q-10.37,0-17.57,3.75a24.63,24.63,0,0,0-10.88,11q-3.66,7.24-3.66,17.7v25.53q0,10.38,3.71,17.62a24.23,24.23,0,0,0,10.87,10.87l7.16,3.62h10.37a40.31,40.31,0,0,0,14.37-2.36,22.19,22.19,0,0,0,9.9-7.12,27,27,0,0,0,5.06-11.5l-11.29-3.54A17.9,17.9,0,0,1,3225.89,1141Z" fill="#ededed"/><rect class="cls-6" x="3266.37" y="1034.37" width="12.22" height="12.05" fill="#ededed"/><rect class="cls-6" x="3266.37" y="1066.99" width="12.22" height="87.48" fill="#ededed"/><path class="cls-6" d="M3352.57,1069a35.87,35.87,0,0,0-16.31-3.42q-11,0-18.42,5a24.17,24.17,0,0,0-9.9,13.83l10.29,3.12a17.5,17.5,0,0,1,7-8.35,20.68,20.68,0,0,1,11.08-2.95c5.91,0,10.45,1.62,13.66,4.85s4.8,7.76,4.8,13.61v7.67h-21.66q-13.82,0-21,7t-7.2,20.6q0,12.64,7.08,19.22t20.47,6.57a38.26,38.26,0,0,0,11.43-1.55,20.47,20.47,0,0,0,8.13-4.64,16.71,16.71,0,0,0,2.78-3.54v8.47h11.64v-60.18a31.69,31.69,0,0,0-3.55-15.51A23.61,23.61,0,0,0,3352.57,1069Zm-3,73.28q-5.19,3.29-14.87,3.29-8.94,0-13.62-4t-4.68-11.64q0-8.67,4.3-13.14t12.47-4.47h21.58v20.23A10.74,10.74,0,0,1,3349.62,1142.25Z" fill="#ededed"/><path class="cls-6" d="M3408.18,1140.1q-2.61-3.07-2.61-8.64v-99.53h-12.14v99.36q0,11.06,5.36,17.11t15.12,6.07h8.43v-11.29h-6.91A9,9,0,0,1,3408.18,1140.1Z" fill="#ededed"/><rect class="cls-6" x="3445.12" y="1034.37" width="12.22" height="12.05" fill="#ededed"/><rect class="cls-6" x="3445.12" y="1066.99" width="12.22" height="87.48" fill="#ededed"/><path class="cls-6" d="M3530.27,1108.28a79.12,79.12,0,0,0-13.83-3.2,1.33,1.33,0,0,0-.45-.09,1.4,1.4,0,0,1-.47-.08.85.85,0,0,1-.29,0,.68.68,0,0,0-.21,0,85.53,85.53,0,0,1-11.6-2.24,16,16,0,0,1-7-3.87c-1.79-1.77-2.69-4.29-2.69-7.54q0-7.42,4.63-11.25t13.57-3.84a20.11,20.11,0,0,1,10.83,3,23.66,23.66,0,0,1,8,8.43l9.94-4.38a25.09,25.09,0,0,0-15.76-15.52,38.36,38.36,0,0,0-12.64-1.93q-9.71,0-16.4,3a21.5,21.5,0,0,0-10.07,8.68q-3.36,5.68-3.37,14.2,0,8.68,3.71,13.48a20.48,20.48,0,0,0,9.1,6.84,70.17,70.17,0,0,0,13.57,3.28,2.94,2.94,0,0,1,.51.05,1.25,1.25,0,0,1,.5.2c.4.06.75.1,1.06.13a7.21,7.21,0,0,1,.8.12,74,74,0,0,1,11,2.32,16.43,16.43,0,0,1,6.74,4c1.77,1.76,2.66,4.31,2.66,7.62,0,5.11-1.79,9-5.35,11.76s-8.7,4.09-15.39,4.09a22.42,22.42,0,0,1-12.43-3.5,27.58,27.58,0,0,1-9.15-10.24l-9.86,4.47a29.17,29.17,0,0,0,6.5,10.79,26.3,26.3,0,0,0,10.62,6.65l6.31,2.19h8q10.29,0,17.49-3a22.66,22.66,0,0,0,10.87-8.8q3.67-5.82,3.67-14.42,0-9.18-3.79-14.24A19.7,19.7,0,0,0,3530.27,1108.28Z" fill="#ededed"/><path class="cls-6" d="M3581.37,1041.53h-12.14V1067h-9v10.87h9v53.85q0,11.46,4.93,17.33t15.55,5.85h9.11V1143.6h-7.42q-5,0-7.51-3t-2.52-8.68v-54h17.45V1067h-17.45Z" fill="#ededed"/><path class="cls-6" d="M3675.62,1115.28a19.6,19.6,0,0,0-9.36-7,78.77,78.77,0,0,0-13.82-3.2,1.34,1.34,0,0,0-.46-.09,1.35,1.35,0,0,1-.46-.08,1,1,0,0,1-.3,0,.59.59,0,0,0-.21,0,85.34,85.34,0,0,1-11.59-2.24,15.91,15.91,0,0,1-7-3.87c-1.8-1.77-2.7-4.29-2.7-7.54q0-7.42,4.64-11.25t13.57-3.84a20.11,20.11,0,0,1,10.83,3,23.63,23.63,0,0,1,8,8.43l9.95-4.38a25.08,25.08,0,0,0-15.77-15.52,38.31,38.31,0,0,0-12.64-1.93q-9.69,0-16.39,3a21.5,21.5,0,0,0-10.07,8.68q-3.37,5.68-3.37,14.2,0,8.68,3.71,13.48a20.48,20.48,0,0,0,9.1,6.84,70.17,70.17,0,0,0,13.57,3.28,2.83,2.83,0,0,1,.5.05,1.35,1.35,0,0,1,.51.2c.4.06.75.1,1.06.13a6.67,6.67,0,0,1,.79.12,73.43,73.43,0,0,1,11,2.32,16.47,16.47,0,0,1,6.75,4c1.77,1.76,2.65,4.31,2.65,7.62,0,5.11-1.78,9-5.35,11.76s-8.7,4.09-15.39,4.09a22.37,22.37,0,0,1-12.42-3.5,27.58,27.58,0,0,1-9.15-10.24l-9.86,4.47a29.15,29.15,0,0,0,6.49,10.79,26.36,26.36,0,0,0,10.62,6.65l6.32,2.19h8q10.29,0,17.5-3a22.66,22.66,0,0,0,10.87-8.8q3.66-5.82,3.66-14.42Q3679.41,1120.34,3675.62,1115.28Z" fill="#ededed"/><path class="cls-6" d="M1850.37,295.07c-19.44-11.25-42.95-17-69.89-17s-50.41,5.71-69.74,17c-19.56,11.41-34.7,28.09-45,49.59-10,21-15.15,46.44-15.15,75.66V680.69c0,29,5.1,54.32,15.15,75.3,10.3,21.52,25.51,38.22,45.21,49.61,19.43,11.26,42.83,17,69.53,17,26.94,0,50.45-5.7,69.89-17,19.7-11.39,34.86-28.1,45.05-49.65,9.93-21,15-46.3,15-75.26V651.2H1838v29.49c0,15.81-2.37,29.29-7,40.1-4.43,10.26-10.68,17.83-19.1,23.16s-19,8-31.39,8-22.51-2.62-31-8-14.74-13-19.3-23.39c-4.77-10.89-7.19-24.31-7.19-39.87V420.34c0-15.8,2.42-29.34,7.19-40.23,4.55-10.4,10.87-18,19.3-23.38s18.86-8,31-8c12.41,0,23,2.69,31.39,8s14.67,12.9,19.1,23.16c4.68,10.8,7,24.29,7,40.1v29.48h72.36V420c0-29-5-54.28-15-75.27C1885.23,323.18,1870.07,306.48,1850.37,295.07Z" fill="#ededed"/><polygon class="cls-6" points="1930.64 352.24 2029.63 352.24 2029.63 817.28 2102 817.28 2102 352.24 2201 352.24 2201 283.4 1930.64 283.4 1930.64 352.24" fill="#ededed"/><polygon class="cls-6" points="2228.3 817.28 2469.76 817.28 2469.76 748.43 2300.66 748.43 2300.66 586.52 2452.15 586.52 2452.15 517.68 2300.66 517.68 2300.66 352.24 2469.76 352.24 2469.76 283.4 2228.3 283.4 2228.3 817.28" fill="#ededed"/><path class="cls-6" d="M2714.47,295.07c-19.45-11.25-43-17-69.89-17s-50.42,5.71-69.75,17c-19.56,11.41-34.7,28.09-45,49.59-10.06,21-15.16,46.44-15.16,75.66V680.69c0,29,5.1,54.32,15.15,75.3,10.3,21.52,25.52,38.22,45.2,49.61,19.44,11.26,42.83,17,69.55,17,26.93,0,50.44-5.7,69.88-17,19.7-11.4,34.87-28.1,45.06-49.65,9.92-21,14.95-46.3,14.95-75.26V651.2h-72.36v29.49c0,15.81-2.37,29.29-7,40.1-4.44,10.26-10.69,17.83-19.11,23.16s-19,8-31.38,8-22.51-2.62-31-8-14.74-13-19.3-23.39c-4.78-10.89-7.19-24.31-7.19-39.87V420.34c0-15.8,2.41-29.34,7.19-40.23,4.55-10.4,10.86-18,19.29-23.38s18.87-8,31-8c12.4,0,23,2.69,31.38,8s14.67,12.9,19.11,23.16c4.67,10.8,7,24.29,7,40.1v29.48h72.36V420c0-29-5-54.28-14.95-75.27C2749.33,323.19,2734.16,306.48,2714.47,295.07Z" fill="#ededed"/><polygon class="cls-6" points="3015.27 519.79 2902.33 519.79 2902.33 283.4 2829.96 283.4 2829.96 817.28 2902.33 817.28 2902.33 588.63 3015.27 588.63 3015.27 817.28 3087.63 817.28 3087.63 283.4 3015.27 283.4 3015.27 519.79" fill="#ededed"/><rect class="cls-6" x="3153.69" y="588.49" width="202.01" height="68.84" fill="#ededed"/><path class="cls-6" d="M3673.63,595c-9.15-17.53-21.11-32.06-35.58-43.2-13.62-10.49-30.46-20.79-50.05-30.63a25.62,25.62,0,0,0-3.38-1.75c-.63-.27-1.31-.59-2.07-1-2-1-3.86-1.9-5.71-2.77-1.67-.77-3.4-1.61-5.34-2.58-19.52-9.41-35-17.69-46-24.6a89.17,89.17,0,0,1-25.62-24.36c-6.5-9.26-9.66-20.37-9.66-33.95v-25c0-20,5.08-35,15.1-44.45,10.2-9.61,26.37-14.49,48.07-14.49,20.31,0,35.47,5.05,45,15s14.6,26.06,14.6,47.47V446.3h71.66V408.71c0-28.34-4.89-52.44-14.54-71.62a97.9,97.9,0,0,0-45-44.65c-19.28-9.51-43.41-14.33-71.73-14.33-29.2,0-54,4.74-73.69,14.08a98.3,98.3,0,0,0-46.18,44.24c-9.92,19.09-15,42.93-15,70.87v25c0,25.42,5.45,47.18,16.21,64.67,10.52,17.11,23.56,31,38.76,41.18,14.3,9.62,33.5,20.41,57,32.05l4.93,2.48c.26.12.53.28.84.46a19,19,0,0,0,3.27,1.58c17.06,8.57,31.18,16.68,42,24.13a88.81,88.81,0,0,1,25,26.08c6.16,9.83,9.28,22.06,9.28,36.36v30.3c0,21.59-5.05,37.64-15,47.7s-25.78,15.11-47.1,15.11c-22.06,0-38.41-5.11-48.58-15.18s-15.29-26.08-15.29-47.63V655.43h-71.66v36.18c0,28.4,5,52.58,14.93,71.87a98.61,98.61,0,0,0,46.36,44.81c19.81,9.47,44.79,14.27,74.24,14.27,29,0,53.67-4.87,73.28-14.49a99.06,99.06,0,0,0,45.74-44.78c9.79-19.19,14.75-43.31,14.75-71.68V659.2C3687.54,634.29,3682.86,612.69,3673.63,595Z" fill="#ededed"/><rect class="cls-7" x="1655.28" y="922.52" width="678.51" height="50.84" fill="#ededed"/><rect class="cls-8" x="2333.78" y="922.52" width="678.51" height="50.84" fill="#ededed"/><rect class="cls-9" x="3012.29" y="922.52" width="678.51" height="50.84" fill="#ededed"/><path class="cls-6" d="M755,1209.31a510,510,0,0,1-145.44-21.17l-138.08.2A563.51,563.51,0,0,0,755,1264.6c232.82,0,433.24-141,520.56-342.11l-60.92.09C1131.16,1092.24,956.53,1209.31,755,1209.31Z" fill="#ededed"/><path class="cls-6" d="M277.49,513,258,513a144.42,144.42,0,0,1-37.65-5.13,564.44,564.44,0,0,0-32.64,189.42q0,14.79.76,29.39a184.22,184.22,0,0,1,54.61-32.58A509.13,509.13,0,0,1,277.49,513Z" fill="#ededed"/><path class="cls-6" d="M736.83,185.8c6-.21,12.09-.46,18.18-.46,214.66,0,398.76,132.84,474.73,320.58a143.23,143.23,0,0,1,59.76,1.54C1211.23,287.78,1001.24,130.05,755,130.05c-18.31,0-36.4.95-54.27,2.66A144.21,144.21,0,0,1,736.83,185.8Z" fill="#ededed"/><path class="cls-10" d="M1411.39,636.52a129.43,129.43,0,0,0-25,2.46l-15,3-2.85-15.05a114.92,114.92,0,0,0-147.7-87.47l-12.42,4-5.84-11.67a153,153,0,0,0-137.52-85c-72.89,0-134,51.05-149.67,119.25,62.21-10.94,155.65-18.35,184.07,28,36.61,59.67,59.49,89.43,137.21,89.43a106.06,106.06,0,0,1,30.14,3.9c28.83,8.5,40.38,29.54,54,49.33,13.91,20.14,30,39,68.83,41.91,50.44,3.82,108.46,14.53,132.52,50.38a128.09,128.09,0,0,0-110.73-192.39Z" fill="#ededed"/><path class="cls-11" d="M1389.6,778.53c-38.82-2.94-54.92-21.77-68.83-41.91-13.65-19.79-25.2-40.83-54-49.33a106.06,106.06,0,0,0-30.14-3.9c-77.72,0-100.6-29.76-137.21-89.43-28.42-46.31-121.86-38.9-184.07-28a151.7,151.7,0,0,0,2.37,78.41l5.42,18.2-18.94,1.31c-59.69,4.15-106.45,54.3-106.45,114.19a114.63,114.63,0,0,0,114.51,114.5l316.16-.46,59.45-.09,137.48-.2a127.34,127.34,0,0,0,96.8-63C1498.06,793.06,1440,782.35,1389.6,778.53Z" fill="#ededed"/><path class="cls-12" d="M654.82,902.3a128.66,128.66,0,0,0-25,2.47l-15,3-2.86-15a114.54,114.54,0,0,0-147.69-87.47l-12.43,4-5.84-11.68a153.78,153.78,0,0,0-287.19,34.22c13.46-2.36,28.42-4.52,43.83-6a369.69,369.69,0,0,1,56.35-1.66c36.54,2,69.07,11.52,83.89,35.67,36.61,59.67,59.49,89.43,137.21,89.43,93.75,0,64.93,88.47,153,95.14,50.44,3.82,108.46,14.53,132.53,50.38A128.1,128.1,0,0,0,654.82,902.3Z" fill="#ededed"/><path class="cls-13" d="M633,1044.31c-88.07-6.67-59.25-95.14-153-95.14-77.72,0-100.6-29.76-137.21-89.43-14.82-24.15-47.35-33.62-83.89-35.67a369.69,369.69,0,0,0-56.35,1.66c-15.41,1.53-30.37,3.69-43.83,6a151.74,151.74,0,0,0,2.37,78.42l5.42,18.19L147.6,929.7C87.91,933.85,41.15,984,41.15,1043.89a114.63,114.63,0,0,0,114.51,114.5L424.6,1158l106.89-.16,137.27-.2a127.37,127.37,0,0,0,96.8-63C741.49,1058.84,683.47,1048.13,633,1044.31Z" fill="#ededed"/><path class="cls-14" d="M757.17,226.53a128.66,128.66,0,0,0-25,2.47l-15,3-2.86-15.05a114.54,114.54,0,0,0-147.69-87.47l-12.43,4-5.84-11.68a153,153,0,0,0-137.51-85c-72.9,0-134,51.05-149.68,119.25,62.21-10.94,155.66-18.35,184.07,28C451.3,194,457,203,462.72,211.35c12.06,17.65,23.9,31.51,38.47,41.62,19.56,13.57,44.1,20.43,81.2,20.43,93.74,0,64.92,88.47,153,95.14,50.44,3.82,108.46,14.53,132.53,50.38A128.1,128.1,0,0,0,757.17,226.53Z" fill="#ededed"/><path class="cls-15" d="M735.38,368.54c-88.07-6.67-59.25-95.14-153-95.14-37.1,0-61.64-6.86-81.2-20.43-14.57-10.11-26.41-24-38.47-41.62C457,203,451.3,194,445.17,184c-28.41-46.31-121.86-38.9-184.07-28a151.7,151.7,0,0,0,2.37,78.41l5.42,18.2L250,253.93c-59.69,4.15-106.45,54.31-106.45,114.19,0,53.95,37.55,99.18,87.85,111.24A113.81,113.81,0,0,0,258,482.62l32.4,0,480.7-.71a127.37,127.37,0,0,0,96.8-62.95C843.84,383.07,785.82,372.36,735.38,368.54Z" fill="#ededed"/></g></g></svg>