<svg id="Capa_1" data-name="Capa 1" xmlns="http://www.w3.org/2000/svg" xmlns:xlink="http://www.w3.org/1999/xlink" viewBox="0 0 2668.45 1299.41"><defs><style>.cls-1{fill:none;}.cls-2{fill:#97bf1e;}.cls-3{fill:#00aae4;}.cls-4{clip-path:url(#clip-path);}.cls-5{fill:#61bcea;}.cls-6{fill:#e31513;}.cls-7{clip-path:url(#clip-path-2);}.cls-8{fill:#e63823;}.cls-9{fill:#ffca00;}.cls-10{clip-path:url(#clip-path-3);}.cls-11{fill:#ffd344;}.cls-12{fill:#1d1d1b;}</style><clipPath id="clip-path"><polygon class="cls-1" points="652.12 663.71 1234.88 359.73 1234.88 956.49 652.12 1267.48 652.12 663.71 652.12 663.71"/></clipPath><clipPath id="clip-path-2"><polygon class="cls-1" points="596.09 663.71 13.32 359.73 13.32 956.49 596.09 1267.48 596.09 663.71 596.09 663.71"/></clipPath><clipPath id="clip-path-3"><polygon class="cls-1" points="624.1 16.51 1195.66 317.7 624.1 616.08 52.55 317.7 624.1 16.51 624.1 16.51"/></clipPath></defs><polygon class="cls-2" points="1195.66 317.7 1234.88 359.73 652.12 1267.49 624.1 1282.89 596.09 1267.49 13.32 359.73 52.55 317.7 624.1 16.51 1195.66 317.7 1195.66 317.7"/><polygon class="cls-3" points="652.12 663.71 1234.88 359.73 1234.88 956.49 652.12 1267.48 652.12 663.71 652.12 663.71"/><g class="cls-4"><polygon class="cls-5" points="638.58 657.07 1245.15 958.25 645.58 1340.69 616.87 664.48 638.58 657.07 638.58 657.07"/></g><polygon class="cls-6" points="596.09 663.71 13.32 359.73 13.32 956.49 596.09 1267.48 596.09 663.71 596.09 663.71"/><g class="cls-7"><polygon class="cls-8" points="606.36 664.48 -0.22 961.05 561.53 1445.75 618.97 1248.93 606.36 664.48 606.36 664.48"/></g><polygon class="cls-9" points="624.1 16.51 1195.66 317.7 624.1 616.08 52.55 317.7 624.1 16.51 624.1 16.51"/><g class="cls-10"><polygon class="cls-11" points="624.1 623.45 624.1 16.51 1218.54 309.65 624.1 623.45 624.1 623.45"/></g><path class="cls-12" d="M2620.83,514.46q-11.55-55.35-38-87.82t-71.91-47.89q-45.45-15.44-146.56-15.44-95.79,0-156.26,19.94t-100,60.34q-39.62,40.41-49.44,96.24-9,51,14,90.91t64,56.62q40.93,16.75,150.3,36.42,73.22,13.29,89.2,22.31,22.21,12.76,18.11,36.14-3.66,20.73-24.72,34.54-27.23,18.62-70.87,18.6-39.9,0-61-16.5t-27.59-54.81l-218.57-.78v21q4.26,81.42,62.2,125.6t212.8,44.17q109.65,0,178.07-27.37T2550.74,853q37.7-46.24,46.32-95.17,8.54-48.37-12.29-88.79t-69.65-62.2q-48.85-21.79-154.73-34-69.82-8.5-89.23-19.14t-15.75-31.35q3.27-18.6,22.34-31.61t55.77-13q36.21,0,58.74,17,16.36,12.76,19.57,39.91l209-20.22Z"/><path class="cls-12" d="M1324.4,1103.16V1027.3h-28.34v-10.15h68.18v10.15h-28.46v75.86Z"/><path class="cls-12" d="M1407.49,1083.1l10.91,1.35a26.61,26.61,0,0,1-9.57,14.84q-7,5.28-17.83,5.28-13.68,0-21.68-8.42t-8-23.61q0-15.74,8.1-24.41t21-8.69q12.49,0,20.42,8.51t7.92,23.94q0,.94-.06,2.82h-46.47q.58,10.26,5.81,15.72a17.28,17.28,0,0,0,13,5.46,16.18,16.18,0,0,0,9.91-3.05Q1405.08,1089.78,1407.49,1083.1ZM1372.81,1066h34.79q-.7-7.86-4-11.79a16.16,16.16,0,0,0-13.08-6.1,16.79,16.79,0,0,0-12.24,4.87Q1373.34,1057.88,1372.81,1066Z"/><path class="cls-12" d="M1475.94,1080.34l10.39,1.35q-1.71,10.74-8.71,16.81a25.39,25.39,0,0,1-17.22,6.07q-12.8,0-20.57-8.36t-7.77-24a43.4,43.4,0,0,1,3.34-17.66,23.31,23.31,0,0,1,10.18-11.35,30.23,30.23,0,0,1,14.87-3.79q10.15,0,16.61,5.14t8.27,14.58l-10.27,1.58c-1-4.18-2.71-7.33-5.19-9.44a13.38,13.38,0,0,0-9-3.17,16.38,16.38,0,0,0-13,5.72q-5,5.72-5,18.1,0,12.55,4.81,18.25a15.67,15.67,0,0,0,12.56,5.69,14.77,14.77,0,0,0,10.38-3.82Q1474.83,1088.26,1475.94,1080.34Z"/><path class="cls-12" d="M1499,1103.16v-86h10.56V1048a23.61,23.61,0,0,1,18.66-8.57,25.31,25.31,0,0,1,12,2.73,16.08,16.08,0,0,1,7.3,7.54q2.21,4.82,2.2,14v39.48h-10.56v-39.48q0-7.92-3.43-11.53t-9.71-3.61a17.13,17.13,0,0,0-8.83,2.43,13.77,13.77,0,0,0-5.9,6.61c-1.17,2.77-1.76,6.61-1.76,11.49v34.09Z"/><path class="cls-12" d="M1569.41,1103.16v-62.31h9.51v8.86q6.86-10.26,19.83-10.27a26,26,0,0,1,10.35,2,16.26,16.26,0,0,1,7.07,5.31,20.36,20.36,0,0,1,3.29,7.8,60.56,60.56,0,0,1,.59,10.27v38.31h-10.57v-37.9q0-6.45-1.23-9.65a10.15,10.15,0,0,0-4.37-5.1,13.82,13.82,0,0,0-7.36-1.91,17.15,17.15,0,0,0-11.65,4.28q-4.9,4.29-4.9,16.25v34Z"/><path class="cls-12" d="M1635.91,1072q0-17.31,9.63-25.64a29,29,0,0,1,19.59-6.93q12.86,0,21,8.42t8.15,23.27q0,12-3.6,18.92a25.53,25.53,0,0,1-10.51,10.71,30.58,30.58,0,0,1-15,3.81q-13.08,0-21.15-8.39T1635.91,1072Zm10.86,0q0,12,5.22,17.92a17.38,17.38,0,0,0,26.23,0q5.22-6,5.22-18.24,0-11.57-5.25-17.52a17.42,17.42,0,0,0-26.2,0Q1646.77,1060,1646.77,1072Z"/><path class="cls-12" d="M1710,1103.16v-86h10.56v86Z"/><path class="cls-12" d="M1736.65,1072q0-17.31,9.62-25.64a29,29,0,0,1,19.6-6.93q12.84,0,21,8.42t8.16,23.27q0,12-3.61,18.92a25.57,25.57,0,0,1-10.5,10.71,30.63,30.63,0,0,1-15.05,3.81q-13.09,0-21.15-8.39T1736.65,1072Zm10.85,0q0,12,5.22,17.92a17.38,17.38,0,0,0,26.23,0q5.22-6,5.22-18.24,0-11.57-5.25-17.52a17.42,17.42,0,0,0-26.2,0Q1747.5,1060,1747.5,1072Z"/><path class="cls-12" d="M1809.08,1108.33l10.27,1.52q.64,4.76,3.57,6.93c2.63,2,6.2,2.93,10.74,2.93q7.33,0,11.33-2.93a14.41,14.41,0,0,0,5.39-8.22q.82-3.22.77-13.55a21.72,21.72,0,0,1-17.25,8.15q-12.86,0-19.89-9.27t-7-22.23a41.42,41.42,0,0,1,3.22-16.46,25.8,25.8,0,0,1,9.36-11.65,25.27,25.27,0,0,1,14.41-4.11q11,0,18.18,8.92v-7.51h9.74v53.87q0,14.55-3,20.62a21.56,21.56,0,0,1-9.39,9.59q-6.42,3.52-15.81,3.52-11.15,0-18-5T1809.08,1108.33Zm8.74-37.44q0,12.27,4.87,17.9a16.07,16.07,0,0,0,24.41,0q4.92-5.61,4.93-17.57,0-11.45-5.08-17.25a15.66,15.66,0,0,0-12.23-5.81,15.21,15.21,0,0,0-12,5.72Q1817.82,1059.63,1817.82,1070.89Z"/><path class="cls-12" d="M1881,1127.16l-1.18-9.91a23.87,23.87,0,0,0,6,.94,11.63,11.63,0,0,0,5.63-1.18,9.61,9.61,0,0,0,3.46-3.28,51.73,51.73,0,0,0,3.23-7.87c.2-.58.51-1.44.94-2.58l-23.65-62.43h11.39l13,36.09q2.52,6.86,4.52,14.43a142.33,142.33,0,0,1,4.34-14.2l13.32-36.32h10.56l-23.7,63.37a123.66,123.66,0,0,1-5.93,14.14,20.91,20.91,0,0,1-6.45,7.66,15.29,15.29,0,0,1-8.69,2.43A21.13,21.13,0,0,1,1881,1127.16Z"/><path class="cls-12" d="M2016.59,1075.53l10.74-.94a23.72,23.72,0,0,0,3.55,10.59,19.36,19.36,0,0,0,8.65,6.69,32.79,32.79,0,0,0,13.2,2.55,31.61,31.61,0,0,0,11.5-1.93,16,16,0,0,0,7.43-5.31,12.35,12.35,0,0,0,2.43-7.37,11.17,11.17,0,0,0-2.35-7.07q-2.34-3-7.74-5.07a151.74,151.74,0,0,0-15.31-4.2q-11.87-2.84-16.61-5.37a23.2,23.2,0,0,1-9.18-8,19.54,19.54,0,0,1-3-10.7,21.9,21.9,0,0,1,3.69-12.18,22.93,22.93,0,0,1,10.8-8.59,40.85,40.85,0,0,1,15.78-2.94,43.18,43.18,0,0,1,16.87,3.08,24.38,24.38,0,0,1,11.24,9.07,26,26,0,0,1,4.22,13.55l-10.91.82q-.89-8.15-6-12.32t-15-4.16q-10.32,0-15,3.78a11.33,11.33,0,0,0-4.72,9.12,9.77,9.77,0,0,0,3.34,7.63q3.29,3,17.17,6.13t19,5.49q7.52,3.47,11.09,8.77a21.34,21.34,0,0,1,3.58,12.23,23.4,23.4,0,0,1-3.93,12.94,25.86,25.86,0,0,1-11.29,9.45,39.36,39.36,0,0,1-16.58,3.37q-11.67,0-19.57-3.4a27.36,27.36,0,0,1-12.37-10.24A29,29,0,0,1,2016.59,1075.53Z"/><path class="cls-12" d="M2102.87,1127v-86.19h9.62v8.1a23.75,23.75,0,0,1,7.69-7.13,21.12,21.12,0,0,1,10.38-2.38,24.61,24.61,0,0,1,14.08,4.11,25.17,25.17,0,0,1,9.21,11.59,42.18,42.18,0,0,1,3.11,16.4,41.63,41.63,0,0,1-3.43,17.22,26.09,26.09,0,0,1-23.73,15.81,19.86,19.86,0,0,1-9.48-2.23,21.54,21.54,0,0,1-6.89-5.63V1127Zm9.56-54.68q0,12,4.87,17.78a15,15,0,0,0,11.8,5.75q7,0,12.05-6t5-18.45q0-11.91-4.9-17.84t-11.71-5.92q-6.73,0-11.94,6.3T2112.43,1072.36Z"/><path class="cls-12" d="M2216,1083.1l10.91,1.35a26.65,26.65,0,0,1-9.56,14.84q-7,5.28-17.84,5.28-13.66,0-21.68-8.42t-8-23.61q0-15.74,8.1-24.41t21-8.69q12.49,0,20.42,8.51t7.92,23.94q0,.94-.06,2.82h-46.47q.6,10.26,5.81,15.72a17.29,17.29,0,0,0,13,5.46,16.16,16.16,0,0,0,9.91-3.05Q2213.55,1089.78,2216,1083.1ZM2181.28,1066h34.79q-.71-7.86-4-11.79a16.16,16.16,0,0,0-13.08-6.1,16.75,16.75,0,0,0-12.23,4.87Q2181.81,1057.88,2181.28,1066Z"/><path class="cls-12" d="M2284.4,1080.34l10.38,1.35q-1.7,10.74-8.71,16.81a25.39,25.39,0,0,1-17.22,6.07q-12.79,0-20.57-8.36t-7.77-24a43.4,43.4,0,0,1,3.34-17.66,23.36,23.36,0,0,1,10.18-11.35,30.27,30.27,0,0,1,14.88-3.79q10.14,0,16.6,5.14t8.27,14.58l-10.26,1.58q-1.47-6.27-5.2-9.44a13.38,13.38,0,0,0-9-3.17,16.42,16.42,0,0,0-13,5.72q-5,5.72-5,18.1,0,12.55,4.81,18.25a15.68,15.68,0,0,0,12.56,5.69,14.78,14.78,0,0,0,10.39-3.82Q2283.27,1088.26,2284.4,1080.34Z"/><path class="cls-12" d="M2307.48,1029.3v-12.15H2318v12.15Zm0,73.86v-62.31H2318v62.31Z"/><path class="cls-12" d="M2378.38,1095.48a39.39,39.39,0,0,1-11.29,7,32.62,32.62,0,0,1-11.65,2q-10.26,0-15.78-5a16.56,16.56,0,0,1-5.52-12.82,17.41,17.41,0,0,1,7.54-14.44,25.83,25.83,0,0,1,7.6-3.46,73.41,73.41,0,0,1,9.39-1.58q12.79-1.53,18.83-3.64.06-2.17.06-2.76,0-6.45-3-9.09-4.05-3.58-12-3.58-7.45,0-11,2.61t-5.25,9.24l-10.33-1.41a25.64,25.64,0,0,1,4.64-10.71,20.3,20.3,0,0,1,9.33-6.27,41.49,41.49,0,0,1,14.14-2.21,37.4,37.4,0,0,1,13,1.88,17.17,17.17,0,0,1,7.34,4.73,16.55,16.55,0,0,1,3.28,7.18,58.53,58.53,0,0,1,.53,9.74v14.08q0,14.73.68,18.63a23.46,23.46,0,0,0,2.67,7.48h-11A22.65,22.65,0,0,1,2378.38,1095.48Zm-.88-23.59q-5.74,2.35-17.25,4A40.29,40.29,0,0,0,2351,1078a9.16,9.16,0,0,0-4.16,3.44,9.32,9.32,0,0,0,1.73,12q3.19,2.82,9.35,2.82a21.8,21.8,0,0,0,10.86-2.67,16.41,16.41,0,0,0,7-7.31q1.71-3.57,1.7-10.56Z"/><path class="cls-12" d="M2407.92,1103.16v-86h10.56v86Z"/><path class="cls-12" d="M2438.52,1029.3v-12.15h10.56v12.15Zm0,73.86v-62.31h10.56v62.31Z"/><path class="cls-12" d="M2464.53,1084.57l10.45-1.65q.89,6.28,4.9,9.62t11.23,3.35q7.28,0,10.8-3a8.87,8.87,0,0,0,3.52-7,6.43,6.43,0,0,0-3.11-5.63q-2.18-1.41-10.8-3.58-11.61-2.92-16.1-5.07a15.36,15.36,0,0,1-9.12-14.29,16.08,16.08,0,0,1,1.9-7.72,17,17,0,0,1,5.2-5.89,21.79,21.79,0,0,1,6.71-3.08,32,32,0,0,1,9.13-1.27,36,36,0,0,1,12.87,2.12,17.5,17.5,0,0,1,8.19,5.72,22.38,22.38,0,0,1,3.64,9.65l-10.33,1.41a11.29,11.29,0,0,0-4.08-7.51q-3.37-2.7-9.53-2.7-7.27,0-10.39,2.4a7,7,0,0,0-3.11,5.64,5.8,5.8,0,0,0,1.29,3.69,9.3,9.3,0,0,0,4.05,2.82q1.59.58,9.33,2.7a129.75,129.75,0,0,1,15.64,4.9,15.88,15.88,0,0,1,7,5.54,15.52,15.52,0,0,1,2.53,9,17.68,17.68,0,0,1-3.09,9.94,19.87,19.87,0,0,1-8.88,7.22,32.44,32.44,0,0,1-13.15,2.55q-12.14,0-18.51-5T2464.53,1084.57Z"/><path class="cls-12" d="M2555.5,1093.72l1.53,9.33a39.56,39.56,0,0,1-8,.94c-3.83,0-6.81-.61-8.92-1.82a10.22,10.22,0,0,1-4.46-4.79q-1.29-3-1.29-12.46v-35.85h-7.74v-8.22h7.74v-15.43l10.5-6.33v21.76h10.62v8.22h-10.62v36.43c0,3,.19,5,.56,5.81a4.42,4.42,0,0,0,1.82,2.06,7,7,0,0,0,3.61.76A34.87,34.87,0,0,0,2555.5,1093.72Z"/><path class="cls-12" d="M2565.21,1084.57l10.45-1.65q.87,6.28,4.9,9.62t11.23,3.35q7.27,0,10.8-3a8.9,8.9,0,0,0,3.52-7,6.43,6.43,0,0,0-3.11-5.63q-2.17-1.41-10.8-3.58-11.61-2.92-16.1-5.07a15.39,15.39,0,0,1-9.13-14.29,16.08,16.08,0,0,1,1.91-7.72,17.08,17.08,0,0,1,5.19-5.89,21.74,21.74,0,0,1,6.72-3.08,32,32,0,0,1,9.12-1.27,36,36,0,0,1,12.88,2.12,17.5,17.5,0,0,1,8.19,5.72,22.38,22.38,0,0,1,3.64,9.65l-10.33,1.41a11.29,11.29,0,0,0-4.08-7.51q-3.37-2.7-9.53-2.7-7.28,0-10.39,2.4a7,7,0,0,0-3.11,5.64,5.8,5.8,0,0,0,1.29,3.69,9.24,9.24,0,0,0,4.05,2.82q1.59.58,9.33,2.7a129.75,129.75,0,0,1,15.64,4.9,15.88,15.88,0,0,1,7,5.54,15.51,15.51,0,0,1,2.52,9,17.67,17.67,0,0,1-3.08,9.94A19.85,19.85,0,0,1,2605,1102a32.36,32.36,0,0,1-13.14,2.55q-12.15,0-18.51-5T2565.21,1084.57Z"/><polygon class="cls-12" points="1998.34 723.71 2061.88 363.31 1821.97 363.31 1666.67 722.75 1637.47 363.31 1397.41 363.31 1293.25 954.05 1442.75 954.05 1522.19 503.54 1557.72 954.05 1693.03 954.05 1887.67 503.54 1808.23 954.05 1957.72 954.05 1991.3 763.19 1876.98 763.19 1998.34 723.71 1998.34 723.71"/></svg>